<?xml version="1.0" encoding="UTF-8"?>
<svg id="_レイヤー_1" data-name="レイヤー_1" xmlns="http://www.w3.org/2000/svg" version="1.1" viewBox="0 0 1873.08 142.25">
  <!-- Generator: Adobe Illustrator 30.2.1, SVG Export Plug-In . SVG Version: 2.1.1 Build 1)  -->
  <defs>
    <style>
      .st0, .st1, .st2, .st3 {
        isolation: isolate;
      }

      .st1 {
        fill: #f0d3e1;
      }

      .st1, .st2, .st3 {
        mix-blend-mode: multiply;
        opacity: .9;
      }

      .st2 {
        fill: #dfecf4;
      }

      .st3 {
        fill: #d4e6e4;
      }

      .st4 {
        fill: none;
        stroke: #000;
        stroke-miterlimit: 10;
        stroke-width: 3px;
      }
    </style>
  </defs>
  <g class="st0">
    <g id="_レイヤー_11" data-name="_レイヤー_1">
      <g>
        <polygon class="st1" points="142.24 11.52 42.98 38.12 115.65 110.79 142.24 11.52"/>
        <polygon class="st2" points="99.26 0 0 26.6 72.66 99.27 99.26 0"/>
        <polygon class="st3" points="110.78 42.98 11.51 69.58 84.18 142.25 110.78 42.98"/>
      </g>
      <g>
        <path d="M986.35,116.81c-.2.49-.67.81-.93,1.19-.3.42-.49.93-.87,1.22s-.99.21-1.45.38-.86.31-1.37.36c-.46.04-.95.25-1.46.2-.47-.04-.88-.26-1.39-.38-.08-.35-.14-.75-.13-1.32.01-.42.04-.89.1-1.4.05-.44.2-.9.27-1.38s.37-.87.46-1.34,0-.96.11-1.41-.02-.99.11-1.43c.14-.48.38-.91.52-1.32.18-.51.43-.92.61-1.26.22-.4.4-.84.63-1.28s.49-.82.69-1.25.45-.87.57-1.32.11-.96.13-1.44.19-1.01.06-1.48-.42-.91-.55-1.38-.31-.94-.44-1.41-.29-.94-.41-1.42-.17-.97-.29-1.45-.07-.99-.18-1.47-.52-.89-.63-1.37-.42-.92-.52-1.4.18-1.04.09-1.52-.03-.99-.11-1.48-.35-.94-.41-1.43-.44-.94-.5-1.43-.08-.94-.17-1.41-.21-.92-.32-1.38-.28-.9-.42-1.35.17-1.05.02-1.51-.74-.74-.9-1.2-.15-1.01-.29-1.48-.4-.92-.52-1.4-.31-.95-.41-1.43.08-1.03-.02-1.51-.49-.91-.58-1.4.46-1.09.37-1.58-.72-.86-.83-1.34c-.16-.72-.03-.75-.19-1.47s-.11-.73-.26-1.46.08-.77-.08-1.5-.57-.64-.73-1.36.2-.8.04-1.52-.47-.66-.62-1.38-.3-.7-.46-1.42.4-.85.24-1.57c-.1-.48-.4-.91-.52-1.38s-.21-.95-.34-1.41-.34-.91-.45-1.38-.3-.92-.39-1.4-.26-.95-.3-1.43c-.06-.72.38-.76.31-1.49s-.64-.68-.7-1.4.03-.73-.03-1.46.38-.77.32-1.49-.55-.68-.61-1.41.32-.76.26-1.49c-.04-.49-.24-.96-.35-1.45s-.44-.9-.58-1.37-.16-.98-.3-1.45.16-1.06.03-1.53-.46-.89-.53-1.37c-.11-.69-.52-.63-.63-1.32s.02-.71-.09-1.4-.26-.67-.37-1.36.03-.72-.08-1.41.16-.74.05-1.43c-.07-.42.03-.94.12-1.47.1-.58-.01-1.32.28-1.57s1.05.03,1.66-.04,1.08-.08,1.45.07c.48.19,1.02.17,1.39.44.4.29.6.77.9,1.14s.65.7.88,1.14.28.92.46,1.37.67.79.82,1.25.32.92.48,1.38.3.92.49,1.36,0,1.1.26,1.51.76.68,1.09,1.04.76.56,1.19.82c.39.24.77.53,1.27.69.43.14.85.57,1.37.64.45.06.98-.42,1.5-.41.74,0,.74.45,1.49.46s.75-.09,1.49-.09.75-.18,1.5-.18.79-.24,1.52-.11c.4.33.72.86,1.11,1.14.41.3.98.34,1.4.6s.71.76,1.15,1,.91.41,1.37.62.83.58,1.3.78,1.03.09,1.51.27.76.75,1.19,1.06.89.52,1.27.89,1,.5,1.35.89.48.99.83,1.37.54,1,.91,1.34,1.07.34,1.41.7.72.74,1.02,1.13.26,1.05.52,1.46.72.74.94,1.19.73.8.9,1.27-.3,1.14-.18,1.63.18.95.25,1.45.24.95.27,1.46-.09.97-.1,1.48.31,1,.26,1.51-.25.98-.3,1.47.31,1.04.26,1.53-.1,1-.16,1.49-.68.92-.75,1.42,0,1.01-.07,1.5-.22.98-.3,1.47-.21.97-.31,1.46.29,1.08.18,1.57-.57.9-.69,1.38-.23.97-.37,1.45-.56.87-.72,1.34.28,1.16.1,1.63-.58.85-.78,1.31-.2,1.02-.42,1.47-.93.64-1.18,1.08c-.38.68-.19.79-.57,1.48s-.31.73-.69,1.41-.73.49-1.12,1.17-.34.71-.72,1.4-.38.69-.76,1.38-.05.87-.41,1.57-.47.64-.8,1.34-.55.6-.89,1.3-.25.74-.58,1.45.11.91-.22,1.62-.33.7-.66,1.41-.86.46-1.19,1.16.11.92-.22,1.62-.59.59-.87,1.32c-.26.69-.45.64-.65,1.35s.13.8-.07,1.51-.42.65-.62,1.36-.02.76-.23,1.47-.57.61-.78,1.32c-.14.49.17,1.14-.05,1.59s-.42.95-.7,1.38-.85.65-1.15,1.06-.58.83-.87,1.25-.3,1-.55,1.44-.51.84-.7,1.31h.01ZM990.68,91.26c.1-.5.47-.93.61-1.41s.09-1.03.25-1.5.69-.81.88-1.28.33-.95.53-1.4.22-1,.44-1.46.59-.83.81-1.28.38-.93.61-1.38.45-.9.67-1.36.5-.84.7-1.28.6-.8.79-1.24.21-.97.39-1.41.13-.99.31-1.44.45-.86.62-1.31.4-.88.57-1.33.27-.93.44-1.38.38-.89.55-1.34.41-.88.57-1.33.22-.94.39-1.4.55-.83.72-1.29.17-.97.29-1.43.18-.95.26-1.41.09-.95.12-1.43.11-.96.09-1.43.1-.98.03-1.45-.46-.89-.57-1.35-.45-.84-.6-1.3.03-1.02-.16-1.46-.27-.93-.49-1.36-.63-.74-.88-1.15c-.26-.43-.8-.61-1.14-.97s-.66-.69-1.06-.99-.81-.53-1.25-.78-.88-.42-1.34-.63-.73-.84-1.19-1.03c-.69-.28-.86.14-1.56-.14s-.62-.46-1.32-.74-.74-.16-1.44-.44-.73-.21-1.42-.49-.59-.55-1.29-.83-.81,0-1.51-.28c-.39-.16-.63-.95-1.12-1.09-.45-.13-1.04.29-1.5.24s-.92-.16-1.36-.04-.85.29-1.2.66c-.3.32-.74.69-.91,1.25-.13.44.2,1.02.14,1.57-.05.47-.44.95-.44,1.49,0,.48.32.98.35,1.5.02.49.21.97.26,1.49s-.46,1.06-.39,1.57.32.98.4,1.48c.08.5.12,1.01.21,1.51s.27.99.37,1.48.29.99.4,1.47c.11.52.33.98.45,1.45.13.53-.17,1.13-.05,1.58.15.57.85.9.97,1.28.16.49.23,1,.38,1.49s-.12,1.11.03,1.6.76.84.9,1.33-.12,1.08,0,1.58.33.97.41,1.47.37.98.42,1.49c.05.48-.02.97.03,1.44s-.33,1.01-.27,1.49.36.93.43,1.4.55.89.62,1.36.02.96.1,1.44.31.92.4,1.39.02.96.11,1.44-.09.99,0,1.47.1.96.2,1.43c.11.53.54,1.04.56,1.6s-.5,1.09-.53,1.64-.04,1.11-.07,1.64c-.03.57.24,1.13.26,1.65s.08,1.13.42,1.55.9.69,1.39.86,1.15.29,1.64,0c.33-.18.52-.89.89-1.39s.61-.96.69-1.35h-.01Z"/>
        <g>
          <path d="M834.75,83.24c-.96,1.76-1.01,1.73-1.97,3.49-.46.85-.87,1.8-1.68,2.42s-1.75,1.18-2.61,1.57c-.99-.13-2.26-1.34-3.25-.79-.83.46-.79,1.94-1.25,2.79-.38.71-1.67.15-2.16-.34-.61-.6-1.17-1.06-1.37-1.85-.28-1.09-.38-1.07-.66-2.16s.11-1.2-.17-2.29c-.14-.54.03-1.88.09-3.22.07-1.49-.18-3.01-.1-3.3.28-1.02.56-1.96.65-2.94s.43-2.03.38-3.03-.59-1.96-.7-2.99.19-2.02.08-3.05c-.1-.97-.3-1.95-.35-3-.09-2.15-.05-2.15-.14-4.3-.04-1.04-.56-2.04-.64-3.07s.44-2.12.32-3.15-.81-1.97-.98-3-.32-2.03-.54-3.05c-.2-.92-.1-1.9-.23-2.83s-.27-1.86-.34-2.8.14-1.88.13-2.82-.4-1.88-.36-2.83c.04-.99.76-2.14,1.54-2.68.9-.63,2.81-.45,3.3.51.39.75-.62,2.02-.63,2.8-.02,1.09-.3,2.17-.3,3.24s.57,2.13.64,3.22c.08,1.41.06,1.41.15,2.83s-.33,1.44-.25,2.86.13,1.41.23,2.83.24,1.4.35,2.8.44,1.38.55,2.79-.36,1.44-.27,2.85.16,1.45.22,2.91-.02,1.46.04,2.92c.04.81.48,1.55.59,2.32s-.24,1.56-.22,2.37c.01.42.47,1.05.74,1.26.5.4,1.34.11,2.15-.22s1.86-.66,2.18-1c.22-.63-.02-.71.11-1.36.05-.28.88-.44,1.14-.27,1.53.95,1.49,1.01,3.02,1.96.71.44,1.29,1.01,1.98,1.53.94.7,2.14,1.58,2.22,2.92.06,1.04.05,1.9.06,2.62.01,1.25-.18,2-.29,2.55-.29,1.47-.81.98-1.37,2l-.03-.02ZM831.07,83.28c.54-.74,1.07-1.57,1.43-2.42s.27-1.86.43-2.77c.23-1.26-.49-2.85-1.51-3.52-.49-.32-1.34-.56-2.34-.33-.77.17-1.43.85-2.16,1.2-.89.42-1.84.61-2.18,1.08-.51.73-.5,1.84-.65,2.93-.14,1.01-.04,2,.07,2.95.15,1.36.13,2.55.61,2.88.76.53,2.18.56,3.43.07,1.1-.43,2.25-1.23,2.86-2.06h.01Z"/>
          <path class="st4" d="M834.75,83.24c-.96,1.76-1.01,1.73-1.97,3.49-.46.85-.87,1.8-1.68,2.42s-1.75,1.18-2.61,1.57c-.99-.13-2.26-1.34-3.25-.79-.83.46-.79,1.94-1.25,2.79-.38.71-1.67.15-2.16-.34-.61-.6-1.17-1.06-1.37-1.85-.28-1.09-.38-1.07-.66-2.16s.11-1.2-.17-2.29c-.14-.54.03-1.88.09-3.22.07-1.49-.18-3.01-.1-3.3.28-1.02.56-1.96.65-2.94s.43-2.03.38-3.03-.59-1.96-.7-2.99.19-2.02.08-3.05c-.1-.97-.3-1.95-.35-3-.09-2.15-.05-2.15-.14-4.3-.04-1.04-.56-2.04-.64-3.07s.44-2.12.32-3.15-.81-1.97-.98-3-.32-2.03-.54-3.05c-.2-.92-.1-1.9-.23-2.83s-.27-1.86-.34-2.8.14-1.88.13-2.82-.4-1.88-.36-2.83c.04-.99.76-2.14,1.54-2.68.9-.63,2.81-.45,3.3.51.39.75-.62,2.02-.63,2.8-.02,1.09-.3,2.17-.3,3.24s.57,2.13.64,3.22c.08,1.41.06,1.41.15,2.83s-.33,1.44-.25,2.86.13,1.41.23,2.83.24,1.4.35,2.8.44,1.38.55,2.79-.36,1.44-.27,2.85.16,1.45.22,2.91-.02,1.46.04,2.92c.04.81.48,1.55.59,2.32s-.24,1.56-.22,2.37c.01.42.47,1.05.74,1.26.5.4,1.34.11,2.15-.22s1.86-.66,2.18-1c.22-.63-.02-.71.11-1.36.05-.28.88-.44,1.14-.27,1.53.95,1.49,1.01,3.02,1.96.71.44,1.29,1.01,1.98,1.53.94.7,2.14,1.58,2.22,2.92.06,1.04.05,1.9.06,2.62.01,1.25-.18,2-.29,2.55-.29,1.47-.81.98-1.37,2l-.03-.02ZM831.07,83.28c.54-.74,1.07-1.57,1.43-2.42s.27-1.86.43-2.77c.23-1.26-.49-2.85-1.51-3.52-.49-.32-1.34-.56-2.34-.33-.77.17-1.43.85-2.16,1.2-.89.42-1.84.61-2.18,1.08-.51.73-.5,1.84-.65,2.93-.14,1.01-.04,2,.07,2.95.15,1.36.13,2.55.61,2.88.76.53,2.18.56,3.43.07,1.1-.43,2.25-1.23,2.86-2.06h.01Z"/>
        </g>
        <path d="M1693.52,98.38c-.23.49-.71.69-1,.97-.36.35-.67.51-1.12.61s-.82.1-1.32.03c-.43-.06-.92.03-1.39-.12-.43-.14-.89-.22-1.34-.4s-.85-.38-1.29-.55-.95-.1-1.39-.25-.81-.54-1.26-.64-.91-.54-1.36-.56c-.49-.02-.97.07-1.42.04-.49-.04-1,.25-1.45.2-.49-.05-.95-.24-1.4-.31-.49-.07-1,.04-1.44-.05-.49-.1-.99-.07-1.43-.18-.48-.12-.84-.64-1.27-.78-.48-.15-.93-.27-1.35-.44-.47-.18-1.06-.02-1.47-.21-.45-.21-.67-.85-1.07-1.06-.44-.23-.92-.34-1.32-.56-.43-.24-.71-.71-1.12-.93s-1.03-.06-1.46-.26-.89-.22-1.35-.36c-.44-.14-.83-.31-1.32-.39-.44-.07-.87-.34-1.38-.36s-1.18-.14-1.64.13-.85.83-1.08,1.29-.31,1.09-.17,1.64c.12.47.62.86.73,1.34s.09.98.2,1.47.06.99.17,1.47.13.98.25,1.46.6.86.73,1.33-.22,1.11-.06,1.57.36.95.56,1.39c.16.36.75.66,1.01,1.19.2.41.13,1.01.35,1.49.2.43.89.68,1.1,1.15s-.07,1.11.11,1.58.43.91.58,1.37.68.87.8,1.34c.12.51-.18,1.08-.13,1.55.05.54.05,1.01-.03,1.46-.1.53-.39.79-.73,1.14-.31.33-.52.87-1.09.99-.39-.29-.81-.6-1.14-.93s-.45-.87-.73-1.24-.59-.73-.83-1.13-.86-.61-1.07-1.04-.09-1.02-.28-1.45-.37-.87-.56-1.3-.65-.76-.83-1.19-.12-.98-.31-1.4-.08-1.02-.29-1.44c-.24-.48-1.15-.57-1.53-1.01s-.5-1.08-.8-1.55-.36-.99-.37-1.58c0-.47-.19-.92-.26-1.36s-.04-.93-.15-1.37-.28-.87-.42-1.3-.7-.71-.85-1.14-.07-.93-.21-1.37.11-.96-.01-1.4c-.13-.49-.66-.88-.77-1.38s-.38-.97-.45-1.47.2-1.05.14-1.56-.18-1-.23-1.51-.24-1-.28-1.51-.24-1-.28-1.5.52-1.07.48-1.57c-.06-.68-.17-.67-.23-1.35s-.48-.64-.54-1.32-.04-.68-.11-1.36-.19-.67-.25-1.35.31-.72.25-1.4-.24-.67-.3-1.35-.03-.68-.11-1.36c-.08-.71.35-.77.25-1.48s-.69-.63-.79-1.34.03-.73-.08-1.44-.28-.69-.38-1.4.22-.76.12-1.47-.4-.66-.49-1.36-.05-.71-.14-1.41-.07-.7-.16-1.41.1-.72,0-1.43.16-.73.07-1.44-.34-.67-.43-1.38.29-.75.2-1.46c-.06-.47-.31-.9-.35-1.36s.1-.94.08-1.4-.05-.93-.06-1.4-.04-.93-.06-1.4-.37-.91-.41-1.38-.08-.92-.14-1.39-.26-.89-.35-1.35-.01-.93-.13-1.39-.3-.88-.37-1.34-.13-.92-.16-1.38.12-.92.14-1.38-.12-.95-.04-1.4.38-.87.5-1.31.07-.97.25-1.39.59-.82.84-1.21c.5-.04,1.04.18,1.51.24s.87.39,1.32.55.9.25,1.32.5.69.61,1.05.94.94.43,1.23.83.76.71.97,1.16.39.94.53,1.42-.4,1.05-.35,1.54.68.96.64,1.45-.15,1-.18,1.49.04,1,.03,1.51-.35,1-.36,1.5-.16,1.01-.16,1.51.16,1,.17,1.51-.09,1.01-.07,1.51.28.99.3,1.5-.13,1.01-.11,1.51.16,1,.18,1.51c.04.78.2.77.24,1.56s-.21.79-.17,1.58.34.77.38,1.55-.04.79,0,1.57-.42.81-.38,1.59c.03.51.08,1.02.11,1.52s.17,1.01.22,1.51-.09,1.03-.04,1.53.73.94.78,1.45-.55,1.07-.5,1.58.07,1,.11,1.51c.06.72.62.68.68,1.4s.07.72.13,1.44-.27.75-.21,1.47c.03.35.19.89.45,1.32s.93.48,1.19.68c.48.38.68,1.14,1.08,1.18.49.04,1.06-.32,1.48-.63.36-.26.66-.7,1.01-1.09.31-.35.59-.77.92-1.14s.86-.47,1.24-.76.64-.67,1.11-.81c.51-.16,1.03-.2,1.54-.32s.94-.63,1.45-.75,1.06-.12,1.57-.24,1.05-.18,1.55-.34.87-.68,1.35-.88,1-.21,1.45-.39,1.08.05,1.55-.11.87-.5,1.34-.65.94-.32,1.42-.44.95-.26,1.44-.35.98-.08,1.48-.13.96-.54,1.46-.55,1.01,0,1.51.02,1.07.59,1.59.85c.58.29,1.4.52,1.55.98.13.41-.27.91-.3,1.3s-.2.72-.37,1.1.03,1-.24,1.3c-.4.43-1.12.3-1.54.51-.46.24-.78.78-1.29.9-.47.11-.96.2-1.49.34-.7.19-.77-.06-1.47.13s-.76-.02-1.46.17-.6.55-1.3.75-.66.35-1.36.55-.7.19-1.41.38c-.43.12-1.01-.11-1.45.03-.51.17-1.05.38-1.31.65-.29.31-.47,1.05-.45,1.65.02.64.47,1.11.83,1.3.68.35.49.71,1.16,1.06s.83.05,1.51.41.62.47,1.3.82.83.05,1.51.41c.44.23.79.6,1.24.79s.81.66,1.28.81.97.24,1.45.36.95.31,1.43.41,1.04-.11,1.52-.02.96.33,1.43.41c.5.08,1.01.06,1.48.14.51.09,1.01.11,1.47.21.52.11.95.41,1.38.56.52.17,1.15.07,1.51.32.44.3.92.78,1.08,1.24.13.4-.26.97-.39,1.54-.09.41-.1.92-.34,1.44l-.04.04Z"/>
        <path d="M714.56,70.15c.25-.07,1.11-.05,1.67.3.51.33.76,1.05.84,1.39.11.52.41,1.12.27,1.63s-.47,1.03-.78,1.46-.85.7-1.25,1.03-.79.83-1.25,1.03-1.09.09-1.56.29-.91.5-1.38.71-.92.48-1.38.7-.95.4-1.41.62-.81.67-1.28.89-1.14.02-1.6.25-.86.57-1.33.8c-.67.33-.66.36-1.34.69s-.56.56-1.23.9-.87-.06-1.55.28-.41.87-1.08,1.2-.85,0-1.52.33-.5.68-1.18,1.02-.91-.15-1.59.19-.48.73-1.16,1.07-.88-.08-1.56.26-.45.8-1.12,1.14c-.64.32-.62.35-1.25.68s-.73.15-1.36.47-.77.07-1.41.39-.64.31-1.28.64c-.4.21-.63.83-1.05,1s-1-.08-1.44.05-.86.29-1.3.4-.82.51-1.27.6-1-.37-1.45-.29-.84.48-1.29.56-.96-.17-1.4-.09c-.5.09-.98.34-1.44.47s-.91.46-1.37.62-.93.34-1.39.51-.84.54-1.32.72-1.11-.13-1.58.03-.88.54-1.36.69-.99.17-1.48.3-.92.42-1.41.54-.91.53-1.4.64-1.04-.04-1.53.05-.99.18-1.49.26-.97.34-1.47.4-1.02-.04-1.52,0-1.02-.21-1.52-.18-1,.02-1.5.04-1,.07-1.5.07-1,0-1.5-.03-1.03.38-1.53.34-.95-.62-1.45-.67-1.07.4-1.56.3-.85-.73-1.32-.87-1.04,0-1.51-.18-.8-.66-1.25-.86-1.16.11-1.61-.12-.61-.97-1.04-1.22-1.02-.24-1.44-.5-.66-.81-1.07-1.09-1.15-.11-1.55-.4-.58-.83-.92-1.15-.71-.65-1.01-1.01-.76-.63-1.03-1.02-.21-.99-.44-1.41-.25-.92-.44-1.35-.41-.84-.57-1.28-.49-.82-.63-1.28-.41-.87-.53-1.33-.43-.87-.54-1.33-.15-.95-.26-1.4-.2-.88-.28-1.31-.23-.88-.28-1.32.21-.91.21-1.35-.17-.91-.09-1.35.3-.84.45-1.27c.17-.49.14-1.03.3-1.47.18-.49.84-.76,1.02-1.19.19-.48.4-.91.6-1.34.22-.47.36-.92.59-1.34.24-.44.09-1.09.35-1.51s.72-.7,1.02-1.1.52-.82.84-1.22c.29-.37.51-.83.84-1.23.3-.36.95-.45,1.29-.84.31-.36.59-.67.93-1.06.5-.18.81-.76,1.35-.89s1.1-.06,1.63-.16,1.07-.2,1.58-.34c.54-.14.92-.59,1.39-.81.55-.25,1.14-.38,1.64-.55.56-.19,1.16,0,1.73.05.51.03,1.11-.18,1.68.13.52-.05.96-.15,1.49-.19s1.06-.06,1.58-.08,1.07.47,1.59.47,1.05-.32,1.57-.31.97.39,1.48.42c.39.27.86.28,1.26.53s.69.69,1.1.92.82.47,1.24.7,1.02.11,1.43.33.84.44,1.24.67c.38.22.45.97.84,1.48.33.43.67.84.91,1.33.29.58.73,1.03.75,1.45.03.56-.44.91-.79,1.39-.32.44-.38,1.16-.79,1.53-.46.41-.92.76-1.24,1.1-.34.37-.93.47-1.27.79-.37.34-.5.95-.87,1.23-.4.3-1.05.2-1.46.43-.43.25-.77.61-1.2.8-.46.2-.85.54-1.3.67-.47.14-.93.4-1.4.49s-1.03-.25-1.5-.21-.96.11-1.44.12-.98.17-1.45.17-.98-.33-1.46-.33-.97.52-1.44.55c-.5.03-1.03-.28-1.49-.18-.48.11-.82.59-1.24.81s-1.05.19-1.49.46-.81.62-1.22.93-.77.68-1.15,1.01-.83.63-1.16,1-.41.93-.69,1.34c-.05.51.08.94.11,1.44s-.33,1.06-.23,1.55.48.92.66,1.4.45.89.68,1.34.35.95.64,1.37.33,1.05.67,1.43,1.04.4,1.42.73.76.64,1.19.91.79.51,1.21.69.81.55,1.26.68.9.4,1.37.47.99-.28,1.46-.24.93.06,1.41.08.94-.05,1.41-.04.94.25,1.41.26c.5,0,1-.15,1.5-.15s.99-.17,1.49-.18,1,.15,1.5.12,1.01.11,1.51.07.98-.31,1.47-.36.97-.23,1.47-.29,1.03.16,1.52.09,1.03.06,1.51-.03.91-.57,1.39-.67.92-.43,1.41-.54,1.02,0,1.5-.13,1.06.11,1.54-.02.94-.34,1.42-.48.88-.52,1.36-.67.9-.45,1.37-.6,1.11.21,1.59.05.77-.82,1.24-.99.89-.45,1.36-.62,1.14.23,1.61.06.79-.71,1.26-.89.89-.45,1.36-.63,1.03-.08,1.5-.27.82-.65,1.29-.83,1.08-.06,1.53-.24c.48-.19,1.02-.19,1.48-.38s.86-.59,1.32-.78.9-.47,1.36-.66.94-.37,1.4-.57.81-.65,1.27-.85,1.04-.13,1.5-.35.78-.67,1.24-.9,1.15.08,1.61-.15.65-.92,1.1-1.16,1.04-.17,1.49-.42.9-.44,1.35-.7.67-.83,1.11-1.1.99-.25,1.47-.43.91-.39,1.4-.54,1.04-.02,1.53-.18.83-.64,1.29-.85.77-.61,1.2-.9c.4-.27.88-.43,1.26-.79.34-.33.71-.66,1.03-1.09.28-.38.51-.85.77-1.32h-.02ZM642.78,69.89c.51.07.97-.19,1.45-.24s1.04.23,1.51.08.78-.66,1.21-.9.84-.45,1.22-.77c.22-.19.5-.47.56-.95s-.16-.82-.32-1.07-.22-.78-.6-1.05-.84-.4-1.15-.42c-.46-.03-.91.06-1.35.18s-.88.24-1.28.47-.61.68-.96.97-1.02.3-1.3.65c-.3.36-.31,1.25-.19,1.87s.61,1.09,1.18,1.16l.02.02Z"/>
        <path d="M1440.57,97.81c-.19-.47.19-1.14.03-1.61s-.69-.84-.82-1.32-.2-.99-.31-1.47.17-1.05.08-1.54-.57-.92-.64-1.41-.29-.98-.35-1.47.1-1.02.05-1.52-.27-.98-.31-1.48-.16-.99-.2-1.49.15-1.01.11-1.51.35-1.03.31-1.53-.08-1-.13-1.5c-.07-.7-.63-.65-.7-1.35s.34-.74.27-1.44-.15-.69-.22-1.4,0-.71-.06-1.41-.15-.69-.22-1.4-.48-.66-.55-1.37.23-.73.17-1.43-.19-.69-.26-1.4-.26-.69-.33-1.39.1-.72.03-1.43c-.05-.54-.1-1.06-.18-1.58s.28-1.13.19-1.65-.81-.96-.87-1.49.46-1.09.45-1.64c-.01-.7-.16-.7-.17-1.4s-.08-.7-.09-1.4-.12-.7-.14-1.4.39-.74.3-1.44c-.09-.76-.15-.78-.31-1.52s-.47-.68-.63-1.43.06-.8-.1-1.55-.16-.75-.32-1.5-.65-.65-.81-1.4c-.12-.55.05-1.14-.23-1.52-.32-.42-.79-.7-1.3-.85-.44-.12-1.04-.42-1.61-.29-.53.12-.98.38-1.47.37-.55,0-1.12.3-1.6.21-.58-.11-1.09-.34-1.51-.46-.87-.24-1.49-.49-1.38.03.14.64.69.6.65,1.26-.39.24-1.04.18-1.56.07-.42-.09-.76-.44-1.21-.7-.4-.23-.95-.26-1.33-.58s-.54-.81-.85-1.17-.78-.63-1.01-1.03c-.26-.45-.36-.94-.45-1.37-.11-.52-.01-.92.22-1.32.16-.26.53-.35,1.03-.41s1.11-.34,1.35-.16c.44.34.65.98,1.08,1.14.48.18,1.04.39,1.54.4.47,0,.91-.65,1.44-.75s1.16.24,1.68.14.97-.72,1.51-.81,1.12.23,1.67.15c.52-.07,1.08.12,1.64.04.46-.06.77-.75,1.16-1.16.34-.35.49-.81.72-1.28s.53-.89.57-1.36.16-.94.21-1.4.17-.93.24-1.39.07-.94.15-1.4.04-.96.14-1.41.13-.94.24-1.4.48-.85.6-1.3.34-.88.47-1.33.33-.88.47-1.33-.14-1.04.02-1.49c.19-.54.73-.89.91-1.32.23-.53.69-.85.93-1.25.29-.48.32-1.04.64-1.41.34-.39.88-.53,1.28-.88.36-.32.43-1.02.86-1.38.36-.3.66-.73,1.09-1.1.36-.31.73-.64,1.15-1.03.35-.33.79-.64,1.17-.84.41-.21.98-.07,1.43-.15s.88.02,1.34.05c.43.03.86-.05,1.32.06.05-.32.29-1.08.14-1.13-.73-.23-.77-.01-1.45-.36.11-.24.65-.66,1.06-.85.61-.29.89-.09,1.3.33.3.3.75.58,1.19,1.03.32.33.76.56,1.24.9.39.27.81.47,1.35.69.43.18.88.43,1.3.68s.81.55,1.19.85.47.92.8,1.26.66.67.94,1.05.65.72.86,1.13.13.94.27,1.36c.14.45.86.77.92,1.22s-.03.99-.06,1.44-.05.98-.16,1.43-.51.83-.7,1.25-.35.87-.62,1.26-.5.82-.83,1.15-.63.74-1.01,1.02c-.34.25-.98.21-1.32.61-.29.33-.58.71-.88,1.11-.27.36-.59.71-.88,1.11-.27.37-.44.82-.74,1.21-.28.36-.53.76-.85,1.13s-.67.65-1.01.99-.66.65-1.02.96-.59.77-.98,1.05-.75.6-1.18.83-.96.17-1.41.35c-.51.2-1.03.31-1.45.53-.49.25-.88.62-1.27.89-.45.32-1.04.47-1.37.82-.36.39-.62.92-.86,1.35s-.19,1.04-.31,1.54-.43.96-.48,1.48c-.04.49.5,1.01.51,1.54,0,.49.02.98.05,1.51.02.49-.13,1-.1,1.53.03.49.22,1,.24,1.52.03.49-.2,1.02-.18,1.54.02.73.2.73.22,1.46s0,.73.02,1.46-.11.74-.09,1.47.13.73.15,1.46-.23.74-.21,1.47.03.73.05,1.47-.15.75-.1,1.48.52.65.6,1.35-.39.75-.31,1.45-.05.71.03,1.41.51.65.59,1.35-.08.72,0,1.41.41.66.49,1.36-.47.76-.39,1.46.67.63.75,1.33-.42.76-.34,1.46.2.69.28,1.39-.03.71.05,1.41.12.7.19,1.41.1.7.17,1.41.02.71.09,1.42.42.67.49,1.38-.21.74-.13,1.45.49.63.59,1.31-.46.77-.36,1.46.26.66.36,1.35.09.69.19,1.37-.04.71.06,1.4.34.65.43,1.34c.1.75-.12.77-.04,1.53s.03.76.11,1.51.04.76.12,1.51.32.73.4,1.48.13.75.21,1.5.03.76.11,1.52.35.73.43,1.48-.08.77,0,1.53c.05.49-.03.99.04,1.47s.18.96.27,1.44.42.91.53,1.38.22.94.34,1.41.05,1,.2,1.46.24.95.41,1.41c.11.31.55.72.75,1.32.15.44.04,1.01.18,1.52s.11,1,.18,1.47c.09.55.73,1.06.67,1.5-.08.58-.64.87-1.15.99-.46.11-.78-.06-1.2-.43-.31-.28-.71-.56-.98-1.02-.23-.38-.59-.75-.8-1.21-.19-.42-.07-.99-.25-1.45s-.55-.82-.7-1.28.12-1.06-.01-1.5c-.15-.49-.88-.78-1-1.2-.16-.55,0-1.11-.11-1.46-.15-.49-.47-.89-.59-1.31-.14-.49-.28-.95-.39-1.38-.12-.5-.37-.94-.45-1.37-.09-.51.14-1.03.09-1.47-.07-.5-.15-.96-.19-1.41s.1-.96.03-1.44c-.06-.44-.31-.87-.42-1.37-.09-.43-.2-.88-.34-1.38-.12-.42-.43-.8-.61-1.29-.15-.42-.44-.8-.63-1.28v-.06ZM1449.2,28.12c.46-.13,1.26.17,1.7-.03s.69-.77,1.1-1.02.83-.47,1.21-.77,1.02-.37,1.33-.71c.34-.37.32-1.01.55-1.41.26-.43.28-.88.38-1.33.1-.48.32-.89.21-1.36-.12-.5-.45-.75-.75-1.06-.32-.33-.65-.42-1.11-.58-.42-.14-.78-.43-1.26-.46-.45-.03-.95-.44-1.41-.39s-.97.13-1.41.23c-.49.11-.8.78-1.19.91-.59.2-1.22.04-1.44.19-.36.26-.69.64-1.05.98-.33.31-.72.61-1.04.98-.3.35-.53.78-.82,1.17s-.18.99-.43,1.4-.73.66-.95,1.08-.3.9-.47,1.33-.15.93-.28,1.37-.4.86-.48,1.31c-.08.48-.15.92-.15,1.38,0,.49-.4,1.03-.3,1.47.11.47.75.54.99.94.51.03.85.54,1.32.48.5-.06.98-.32,1.43-.47s.89-.43,1.31-.69.73-.64,1.08-.98.92-.52,1.2-.93.54-.86.74-1.32-.15-1.24-.03-1.72h.02Z"/>
        <g>
          <path d="M842.88,121.83c-.56.92-.95,1.96-2.11,1.99-.34-.64-.32-1.73.02-2.41.66-1.33.72-1.29,1.38-2.62s.69-1.31,1.35-2.64c.7-1.42.67-1.44,1.37-2.87s.77-1.39,1.48-2.81c.81-1.61.88-1.57,1.7-3.17.71-1.37.65-1.4,1.35-2.77s.53-1.46,1.21-2.83,1.12-1.13,1.78-2.49.77-1.31,1.43-2.66c.41-.85.26-2.06.6-2.95.56-1.47.87-1.35,1.42-2.82s.87-1.35,1.43-2.82c.3-.78-.03-2.32.49-2.9,1.45-1.62,1.19.5-.27-1.18-.42-.48-.91-1.29-1.52-2.16-.5-.71-1.1-1.42-1.58-2.15-.58-.88-1.52-1.43-1.85-1.99-.19-.32,0-1.92-.19-3.36s-.36-2.94-.45-3.27c-.24-.81-.63-1.48-.62-2.21s.39-1.37.74-2.16c.21-.47-.34-1.56-.21-2.18.18-.86,2.02-1.24,2.83-.84.42.21,1.01.98,1.13,2.3.07.79,0,1.73,0,2.69.01.87-.41,1.79-.42,2.68,0,.94.52,1.86.53,2.68,0,1.14-.02,2.05.08,2.61.09.51.84,1.62,1.65,2.8s1.36,2.74,1.76,2.98,1.31-.45,2.38-1.2c.61-.43,1.13-1.09,1.8-1.78.56-.58,1.37-1,1.91-1.73.49-.67.68-1.55,1.09-2.33.35-.67,1.11-1.59,1.95-2.39.73-.7,1.72-1.24,2.54-1.69,1.1-.61,2.41-.89,3.07-.34.21.85-.19,1.78-.45,2.56s-.81,1.33-1.39,1.95c-.93.96-.59,1.29-1.53,2.25s-1.02.88-1.96,1.83-.98.92-1.92,1.88-1.01.89-1.95,1.85c-.58.62-1.22,1.23-1.69,1.93s-1,1.39-1.43,2.12-.75,1.51-1.23,2.21-.49,1.66-.88,2.39-1.3,1.18-1.69,1.94c-.67,1.29-.58,1.34-1.25,2.62s-.15,1.56-.83,2.85-1.2,1.03-1.9,2.34-.63,1.34-1.32,2.65c-.64,1.22-.21,1.44-.84,2.66s-1.2.93-1.82,2.16c-.47.93-.61,2.03-1.08,2.96s-.77,1.97-1.31,2.86c-.73,1.2-.95,1.07-1.69,2.27s-.46,1.39-1.25,2.56-1.12.96-1.85,2.16h.01Z"/>
          <path class="st4" d="M842.88,121.83c-.56.92-.95,1.96-2.11,1.99-.34-.64-.32-1.73.02-2.41.66-1.33.72-1.29,1.38-2.62s.69-1.31,1.35-2.64c.7-1.42.67-1.44,1.37-2.87s.77-1.39,1.48-2.81c.81-1.61.88-1.57,1.7-3.17.71-1.37.65-1.4,1.35-2.77s.53-1.46,1.21-2.83,1.12-1.13,1.78-2.49.77-1.31,1.43-2.66c.41-.85.26-2.06.6-2.95.56-1.47.87-1.35,1.42-2.82s.87-1.35,1.43-2.82c.3-.78-.03-2.32.49-2.9,1.45-1.62,1.19.5-.27-1.18-.42-.48-.91-1.29-1.52-2.16-.5-.71-1.1-1.42-1.58-2.15-.58-.88-1.52-1.43-1.85-1.99-.19-.32,0-1.92-.19-3.36s-.36-2.94-.45-3.27c-.24-.81-.63-1.48-.62-2.21s.39-1.37.74-2.16c.21-.47-.34-1.56-.21-2.18.18-.86,2.02-1.24,2.83-.84.42.21,1.01.98,1.13,2.3.07.79,0,1.73,0,2.69.01.87-.41,1.79-.42,2.68,0,.94.52,1.86.53,2.68,0,1.14-.02,2.05.08,2.61.09.51.84,1.62,1.65,2.8s1.36,2.74,1.76,2.98,1.31-.45,2.38-1.2c.61-.43,1.13-1.09,1.8-1.78.56-.58,1.37-1,1.91-1.73.49-.67.68-1.55,1.09-2.33.35-.67,1.11-1.59,1.95-2.39.73-.7,1.72-1.24,2.54-1.69,1.1-.61,2.41-.89,3.07-.34.21.85-.19,1.78-.45,2.56s-.81,1.33-1.39,1.95c-.93.96-.59,1.29-1.53,2.25s-1.02.88-1.96,1.83-.98.92-1.92,1.88-1.01.89-1.95,1.85c-.58.62-1.22,1.23-1.69,1.93s-1,1.39-1.43,2.12-.75,1.51-1.23,2.21-.49,1.66-.88,2.39-1.3,1.18-1.69,1.94c-.67,1.29-.58,1.34-1.25,2.62s-.15,1.56-.83,2.85-1.2,1.03-1.9,2.34-.63,1.34-1.32,2.65c-.64,1.22-.21,1.44-.84,2.66s-1.2.93-1.82,2.16c-.47.93-.61,2.03-1.08,2.96s-.77,1.97-1.31,2.86c-.73,1.2-.95,1.07-1.69,2.27s-.46,1.39-1.25,2.56-1.12.96-1.85,2.16h.01Z"/>
        </g>
        <path d="M387.23,87.78c-.43-.3-.82-.58-1.19-.89-.4-.34-1.22-.19-1.57-.54-.37-.37-.47-.99-.78-1.36-.34-.4-.39-.99-.68-1.39-.31-.43-.64-.81-.91-1.2-.31-.45-.52-.93-.79-1.31-.33-.46-.85-.74-1.18-1.04-.41-.39-.88-.8-1.37-.84-.4-.03-.9.03-1.35.11-.43.07-.87.3-1.26.47-.43.18-.93.35-1.21.63-.36.36-.43,1-.79,1.36s-.79.64-1.14,1-.86.57-1.21.93-.78.65-1.12,1.02-.39,1-.72,1.38-.73.69-1.05,1.08-.89.52-1.2.88c-.33.37-.23,1.12-.56,1.46s-.81.58-1.16.9-1,.33-1.36.64-.68.66-1.07.96-.64.74-1.04,1.02-.68.71-1.09.97-.88.4-1.3.65c-.4.24-.86.73-1.29.98-.46-.26-.76-1.07-1.18-1.29-.47-.25-1.09-.15-1.52-.37-.48-.24-.97-.38-1.4-.59-.48-.23-.93-.47-1.35-.68-.48-.24-.94-.46-1.35-.7-.46-.27-.98-.44-1.36-.75-.4-.32-.68-.81-.98-1.21-.29-.38-.69-.77-.91-1.27-.18-.42.11-1.06-.03-1.59-.11-.45-.08-.94-.17-1.48-.07-.46-.75-.88-.81-1.42-.04-.47.56-1.02.53-1.55-.03-.48-.07-.97-.09-1.5-.01-.49-.62-.96-.6-1.41.01-.5.48-.94.52-1.39.05-.5-.05-.97.03-1.41.09-.49.26-.92.39-1.35.14-.47.43-.84.61-1.26.19-.44.37-.85.6-1.25s.27-.93.53-1.32.46-.82.75-1.2.68-.65.97-1.03c.28-.36.72-.62,1-1.01.27-.37.56-.74.83-1.15.25-.38.35-.87.6-1.29s.51-.75.83-1.03.75-.44,1.14-.68c.36-.22.59-.67.98-.92.28-.18.36-.61.65-1.01.24-.34.83-.45,1.1-.77.3-.35.62-.52.99-.66.34-.13,1.19.19,1.07.54s.06.65-.68,1.43c.54.08.9.42,1.31.44.57.02,1.02-.54,1.41-.59.58-.08,1.06.11,1.45.03.44-.08.85-.33,1.42-.13.35.12.57.67,1.08.99.34.21.89.23,1.34.56.34.25.64.65,1.06.98s.78.81,1.22,1.1.96.55,1.43.81,1.18.05,1.67.27.86.69,1.37.89.99.49,1.44.62c.56.16,1.09.23,1.54.29.6.08,1.12.07,1.57.06.6,0,1.08-.05,1.53,0,.48.06.96.07,1.41.5.3.28.27.9.61,1.44.37.59.61.43.98,1.02s.3.63.67,1.22.73.36,1.1.95c.26.42,0,1.13.25,1.56s.47.84.7,1.27.65.76.86,1.2.48.85.67,1.3.57.82.76,1.27.15.98.33,1.44.23.95.39,1.41.53.84.69,1.31c.11.31-.25.8-.41,1.3s.02,1.24-.19,1.47c-.25.27-1.04.55-1.64.58-.56.03-.98-.65-1.31-.87h-.01ZM360.13,82.73c.48.1,1.06.02,1.41-.11.4-.15.39-.96.7-1.24s.84-.34,1.15-.59c.4-.32,1-.45,1.35-.82s.65-.84.94-1.26.65-.85.88-1.31.21-1.06.36-1.54.41-.99.47-1.5.03-1.06-.01-1.57-.24-1.02-.38-1.51-.29-1.09-.54-1.56c-.51-.19-1.16.11-1.67.16s-1,.1-1.47.34-1.01.38-1.4.74-.84.72-1.12,1.16-.18,1.1-.34,1.59c-.17.53-.5.99-.77,1.45s-.86.72-1.17,1.17-.13,1.2-.42,1.67c-.25.4-.46.73-.41,1.24.05.46-.19,1.1.05,1.54s.67.85,1.03,1.16.91.7,1.38.79h-.02Z"/>
        <path d="M1357.96,92.74c.49-.12,1.16.13,1.63-.05s.93-.46,1.37-.69.62-.92,1.05-1.2.99-.33,1.39-.63.94-.45,1.32-.78.72-.72,1.09-1.06.71-.74,1.06-1.08.93-.51,1.29-.85c.38-.36.57-.89.93-1.22.39-.36.87-.56,1.24-.86.42-.34.6-.98,1-1.21.48-.27,1.03-.35,1.49-.43.24-.04.88-.02,1.22.25s.27.86.2,1.13c-.12.46.11,1.16-.13,1.7-.22.5-.92.77-1.21,1.23-.32.51-.73.8-1.09,1.12-.53.47-.14.92-.67,1.39s-.9.05-1.43.51-.12.94-.65,1.41-.53.47-1.07.94-.94,0-1.48.48-.35.69-.88,1.16c-.36.31-.7.66-1.08,1-.36.32-.92.43-1.29.77s-.5.9-.87,1.24-.61.79-.99,1.12-1.11.21-1.49.53-.73.65-1.12.96-.6.82-1,1.12-.85.51-1.25.79-.67.77-1.08,1.04-.84.53-1.26.78-.86.51-1.29.73-.96.29-1.41.49-.93.31-1.39.48-.97.17-1.44.29-.94.21-1.42.29-.92.58-1.41.61-.97-.45-1.45-.45-.96.32-1.44.3-.96,0-1.44-.05-.94-.22-1.41-.29-.93-.23-1.4-.33-.89-.33-1.35-.47-1.04.11-1.49-.06-.77-.63-1.2-.84-.92-.3-1.33-.54-.68-.67-1.08-.96c-.34-.25-.71-.54-1.1-.8-.36-.25-.92-.23-1.29-.5s-.85-.4-1.19-.68-.72-.62-1-.95c-.3-.35-.64-.76-.82-1.16-.19-.43-.32-.9-.49-1.34s-.28-.91-.43-1.36-.05-.97-.18-1.42-.23-.91-.34-1.37.05-.96-.03-1.42-.28-.9-.34-1.36-.15-.92-.19-1.39-.21-.93-.22-1.39-.15-.95-.14-1.41c.02-.52-.15-1.07-.08-1.56s.52-.97.63-1.45.41-.93.58-1.41.43-.89.65-1.35.26-.99.53-1.43.35-1,.66-1.4.66-.78,1.01-1.16c.33-.36.82-.59,1.18-.94s.55-.98.97-1.23,1.05-.08,1.56-.12c.78-.06.76-.3,1.54-.36s.81.38,1.59.32.74-.61,1.52-.66.8.22,1.58.16c.46-.03.94-.27,1.42-.25s.97-.05,1.44.03.9.37,1.36.49.94.18,1.39.34.83.49,1.26.68.73.65,1.14.87,1.02.13,1.41.38c.41.26.67.73,1.02,1,.4.3.59.76.91,1.07.37.36.85.53,1.08.89.3.46.61.87.63,1.27.02.34-.07.89-.33,1.4-.19.36-.4.81-.7,1.23-.25.36-.88.47-1.18.84-.29.35-.43.84-.75,1.18s-.57.76-.9,1.07-.95.35-1.29.64c-.38.32-.46.98-.81,1.22-.44.3-.9.55-1.25.69-.44.18-1.04-.12-1.49.02s-.9.23-1.35.35-.81.66-1.27.76-.92.22-1.38.31-1.01-.21-1.46-.11-.85.51-1.3.62-.98,0-1.43.14c-.51.16-.89.56-1.12.95s.05.9.04,1.4c0,.46-.19.92-.05,1.37s.52.79.75,1.15c.26.4.4.83.73,1.15s.66.64,1.05.89.73.6,1.15.81.81.48,1.25.65.94.17,1.37.32c.47.17.93.32,1.39.42.48.11.94.48,1.41.51s1.01-.03,1.49-.07.97-.16,1.45-.26.88-.46,1.35-.6.9-.3,1.36-.47.87-.42,1.32-.59.92-.29,1.37-.47.99-.17,1.42-.38.74-.67,1.17-.91,1.03-.17,1.44-.44.8-.57,1.18-.87.76-.62,1.12-.96.41-1.02.74-1.39h0Z"/>
        <path d="M1277.44,108.89c.15.36-.28,1.03-.13,1.58.11.43.31.87.4,1.38.09.46.21.92.27,1.42.06.47.18.94.21,1.43s.38.97.38,1.45-.54.95-.59,1.43-.11.94-.21,1.41c-.11.49-.22.92-.4,1.35-.19.47-.21.97-.49,1.34-.3.39-.52.9-.93,1.15s-.93.25-1.45.34-.89-.24-1.3-.36c-.46-.14-1.18.16-1.52-.18-.31-.32-.25-.99-.47-1.44-.2-.4-.26-.86-.4-1.33-.13-.44-.19-.89-.28-1.36s-.31-.91-.36-1.37-.24-.95-.27-1.4c-.03-.52.16-1,.15-1.42-.01-.65.02-1.17,0-1.42-.05-.48-.45-.92-.52-1.4s.25-1.03.15-1.5-.09-.98-.2-1.46-.22-.95-.34-1.42-.81-.78-.95-1.25.11-1.04-.03-1.51-.65-.81-.8-1.27-.23-.94-.38-1.41.04-1.03-.1-1.49-.33-.91-.47-1.38c-.21-.69-.32-.66-.53-1.36s-.27-.68-.48-1.37-.46-.62-.67-1.31.18-.81-.03-1.51-.19-.7-.4-1.4-.15-.72-.36-1.41-.25-.71-.48-1.43-.21-.72-.43-1.44-.73-.56-.96-1.29.11-.82-.12-1.54-.27-.71-.49-1.43-.27-.71-.5-1.43-.09-.76-.31-1.48-.55-.62-.78-1.34.26-.87.03-1.59-.25-.72-.47-1.44-.22-.69-.43-1.39-.07-.74-.29-1.43-.35-.65-.56-1.35-.62-.57-.83-1.27.12-.8-.09-1.5-.28-.68-.5-1.37-.45-.64-.6-1.36c.03-.49.14-1.02.14-1.5s0-.98-.02-1.47-.32-.94-.38-1.43.07-.99-.01-1.47-.15-.97-.26-1.44-.33-.92-.47-1.39.14-1.07-.01-1.53-.49-.87-.66-1.33-.43-.88-.61-1.34-.41-.89-.6-1.34-.05-1.03-.23-1.49-.5-.84-.66-1.3-.73-.81-.85-1.28-.13-1-.19-1.49c-.08-.78-.04-.79-.13-1.57s.06-.8-.02-1.58-.22-.77-.31-1.55.32-.83.23-1.61-.08-.78-.16-1.57-.67-.7-.73-1.46.38-.8.31-1.56-.05-.76-.11-1.53-.03-.71.06-1.47c.37-.38.39-.88.84-1.04.47-.17,1.01.3,1.51.35s1.02-.16,1.47.06.9.47,1.27.82.79.7,1.09,1.1.43.95.69,1.39.59.85.8,1.32.18,1.02.35,1.51.65.87.78,1.36.22,1.01.34,1.51-.16,1.08-.06,1.58.27.99.36,1.49-.04,1.05.05,1.55c.12.7.67.6.8,1.3s-.02.72.11,1.42.27.67.39,1.37.1.7.22,1.4-.08.73.04,1.43-.12.74,0,1.44c.12.7.44.64.57,1.34s.38.66.51,1.36c.08.47.2.91.37,1.4.16.46-.15,1.11.02,1.58s.25.95.36,1.41.73.77.83,1.22-.3,1-.21,1.44.27.87.36,1.32.28.87.36,1.32.04.92.11,1.37.42.86.48,1.31.03.92.08,1.37c.06.51-.06,1.04.02,1.52s.47.93.59,1.42.21.98.35,1.46.45.91.61,1.38.27.96.43,1.44.09,1.02.26,1.5.27.96.43,1.44.66.84.8,1.33.27.98.38,1.46.34.96.43,1.45-.39,1.08-.3,1.58.07,1,.15,1.49.66.9.75,1.39.13.99.24,1.48-.13,1.07,0,1.55.67.83.85,1.3.12,1.03.34,1.48.77.77.97,1.21c.21.47.33.97.51,1.41.19.47.5.9.66,1.35s.19.99.35,1.46-.09,1.07.07,1.55.31.93.47,1.42c.16.45.52.85.7,1.34.16.45.19.97.38,1.45.17.44.28.94.48,1.42.18.44.93.67,1.13,1.15h.04Z"/>
        <path d="M443.28,105.25c-.38.38-.57.94-.94,1.31s-.71.79-1.07,1.16-.96.55-1.31.94-.38,1.07-.73,1.47-1.04.49-1.38.9-.39,1.04-.72,1.45c-.26.33-.67.6-1.02.85s-.77.48-1.17.61-.84-.23-1.26-.29c-.51-.06-.91-.13-1.37-.43-.43-.28-.7-.62-1.02-1.05-.31-.41-1.08-.6-1.25-1.11s-.2-1.09-.2-1.63c0-.5.43-.98.6-1.5.15-.46.13-.97.32-1.39s.17-1,.4-1.41.75-.66,1.02-1.05.32-.96.61-1.33.69-.67,1-1.03.78-.57,1.1-.92c.49-.54.64-.4,1.13-.94s.43-.59.92-1.13.41-.61.9-1.15.61-.43,1.09-.97.62-.42,1.11-.96.4-.63.89-1.17.61-.44,1.1-.98,0-.99.5-1.53c.33-.36.74-.63,1.05-1s.82-.59,1.11-.98.59-.78.86-1.19.42-.89.66-1.31.39-.89.61-1.32.71-.74.91-1.19-.06-1.07.12-1.52c.18-.48.88-.76.99-1.19.12-.5.02-1.04.04-1.48.03-.51-.17-.99-.26-1.42-.1-.49-.13-1.01-.35-1.41s-.7-.68-1.03-1.02-.65-.68-1.05-.96-.72-.64-1.13-.88-.96-.22-1.38-.44-.9-.35-1.31-.57-.6-.88-.98-1.12c-.41-.26-.79-.48-1.13-.78-.36-.32-.73-.56-.97-.95s-.76-.64-.94-1.07-.38-.86-.51-1.3-.06-.94-.17-1.39.16-.98.06-1.42-.73-.78-.83-1.22c-.11-.46-.26-.88-.38-1.31-.17-.6.26-1.17.31-1.64.05-.57.23-.95.48-1.42s.25-1.09.59-1.53c.32-.42.73-.78,1.02-1.24.25-.4.76-.6,1.02-.98s.32-.91.61-1.26.41-.88.72-1.22.81-.51,1.14-.83.69-.61,1.05-.9.68-.63,1.07-.89.95-.21,1.35-.45.55-.9.97-1.12.95-.19,1.38-.37c.23-.34.26-.98.59-1.41.3-.38.9-.54,1.24-.88.38-.38.73-.67,1.11-.85.41.14.89.2,1.41.37.45.15.99.15,1.47.33s.8.68,1.24.9c.48.23.79.61,1.16.88.46.33.87.5,1.04.89.12.26.15.62.05,1.07-.09.39.03.89-.11,1.2-.25.56-.71.87-1.01,1.17-.38.37-.88.33-1.38.5-.43.14-.91.2-1.46.33-.44.11-.74.86-1.27,1.04-.43.15-1.03-.02-1.52.22-.42.2-.83.49-1.3.79-.39.25-.62.78-1.06,1.11-.38.29-.83.51-1.23.87-.34.31-.55.67-.82,1.06s-.91.54-1.09.98-.43.88-.53,1.34.34.99.31,1.46-.45.94-.39,1.4.36.89.49,1.34.22.92.43,1.34.69.64.98,1.01.21,1.08.57,1.39c.56.5.94.08,1.5.58s.22.88.78,1.38.97.04,1.53.54.52.55,1.09,1.05.6.46,1.16.96c.38.34.64.82.98,1.16.37.36.44.97.76,1.34s.86.59,1.14,1,.37.93.6,1.38.54.82.72,1.31c.16.45.08.98.2,1.49s.69.89.74,1.36-.35,1-.38,1.48.34,1.05.22,1.52-.66.8-.88,1.25c-.21.42-.12,1.07-.42,1.48-.45.62-.81.35-1.26.97s-.62.49-1.07,1.11-.39.66-.85,1.28-.06.91-.52,1.53-.62.49-1.08,1.11c-.3.41-.48.91-.78,1.32s-.78.68-1.09,1.09-.62.8-.93,1.2-.6.82-.91,1.21-.44.95-.76,1.34-1.02.46-1.35.85-.47.93-.81,1.3-.78.65-1.13,1.02-.7.72-1.07,1.08v.03Z"/>
        <path d="M583.7,67.17c-.16-.43.07-1.06-.08-1.6-.13-.49-.3-.99-.43-1.48-.14-.54-.58-.95-.73-1.38-.25-.7-.38-1.27-.72-1.27s-.8.34-1.26.82c-.31.33-.91.54-1.23.97-.29.4-.36,1-.62,1.43-.29.46-.46.96-.68,1.36-.36.66-.9,1.09-.95,1.27-.2.71.08.79-.12,1.5s.05.78-.15,1.49-.74.55-.94,1.26-.12.73-.32,1.44.08.79-.12,1.5-.58.6-.79,1.31.06.79-.14,1.49-.11.74-.31,1.45-.44.64-.65,1.36-.31.67-.56,1.36c-.23.64-.28.6-.54,1.23s-.29.62-.55,1.24-.27.63-.53,1.26.19.82-.07,1.45-.72.44-.98,1.07c-.15.37-.28.85-.4,1.3s-.09.86-.27,1.24c-.2.41-.14,1.11-.53,1.31s-1.13.33-1.67.24c-.49-.08-.82-.77-1.25-1.03-.47-.28-.88-.51-1.09-.92-.18-.35-.71-.63-.9-1.09-.17-.41-.02-.97-.15-1.4s-.09-.91-.16-1.34c-.08-.5-.01-.86.07-1.25.11-.5-.42-1.11-.32-1.58.11-.5.67-.89.76-1.35.1-.5-.16-1.06-.07-1.52.1-.51.73-.88.82-1.34.1-.51-.19-1.06-.11-1.52.09-.51-.06-1.04.03-1.49.09-.51.27-.98.35-1.44.1-.51.09-1.02.18-1.48.1-.5.85-.82.97-1.28s-.11-1.04.04-1.51.31-.91.49-1.38c.17-.43.55-.8.76-1.27.19-.42.44-.83.67-1.3.21-.41,0-1.07.25-1.53.22-.41.43-.85.69-1.3.23-.41.54-.8.8-1.24.23-.41.71-.7.97-1.14.24-.4.45-.85.71-1.29.24-.41.7-.71.96-1.15.24-.41.37-.84.64-1.28.54-.39.62-.22,1.21-.53s.44-.6,1.03-.91.52-.45,1.12-.76.7-.11,1.29-.42c.21-.11.82-1.08.99-.97.58.38.62.33,1.2.72.34.22.5.18.94.07.35-.08.86-.22,1.25-.48.73.14.66.5,1.33.8s.54.62,1.21.92.72.21,1.4.51c.44.19,1.05-.08,1.5.07s.86.49,1.29.68.99.32,1.36.62.48.86.72,1.32.44.92.62,1.39.07,1.03.19,1.52.23.97.32,1.47.33.97.39,1.47-.05,1.02,0,1.53.17,1.01.23,1.51c.08.72.58.66.66,1.38s-.53.79-.45,1.52.57.66.66,1.38-.2.75-.11,1.47.4.69.48,1.41.23.7.32,1.42-.25.76-.16,1.48-.1.74-.01,1.47.15.71.24,1.44.31.7.39,1.42-.19.76-.11,1.48.22.71.31,1.43c.06.51.06,1,.03,1.47-.03.51-.19.96-.32,1.43-.13.49-.05,1.06-.28,1.49s-.75.69-1.09,1.04-.57.88-1,1.14c-.41.24-1.03.03-1.52.17-.45.13-.87.42-1.39.46-.56.04-.8-.36-1.18-.71-.34-.31-.77-.53-.99-1.06-.18-.44-.18-.95-.29-1.49-.11-.48-.63-.92-.69-1.44s.42-1.07.38-1.58-.62-1.01-.64-1.5c-.03-.55.52-1.1.5-1.56-.03-.62-.14-1.17-.2-1.54-.1-.7-.14-.69-.24-1.39s-.44-.65-.54-1.34-.21-.68-.31-1.38.36-.76.26-1.46.01-.71-.09-1.41c-.08-.52-.64-.97-.7-1.46s-.21-1.01-.27-1.51-.15-.99-.24-1.5.24-1.08.11-1.59c-.13-.48-.66-.84-.85-1.33l-.03.02Z"/>
        <path d="M516.29,85.27c-.53.7-.4.8-.93,1.5s-.52.7-1.05,1.4c-.31.41-.63.8-.97,1.16s-.67.77-1.04,1.1-.7.75-1.11,1.05-.98.35-1.41.62-.68.85-1.12,1.09-1.15-.07-1.62.14c-.42.2-.61.88-1,1-.43.14-.91.28-1.33.3s-.89-.17-1.34-.3c-.38-.11-.81-.28-1.23-.52-.44-.26-.81-.67-1.27-.92s-.78-.72-1.23-.99-1.1-.22-1.52-.52-.55-.94-.91-1.31-1.06-.45-1.35-.9c-.27-.42-.48-.89-.64-1.32-.16-.46.05-1,0-1.46s-.37-.94-.32-1.42.17-.95.29-1.42.23-.93.39-1.38.16-.98.36-1.42.95-.6,1.16-1.03.29-.92.52-1.34.38-.88.61-1.29.17-1,.39-1.41c.2-.38.86-.58,1.15-1.04.24-.39.39-.87.69-1.3.27-.39.79-.61,1.09-1.02.28-.39.48-.85.79-1.25s.41-.92.73-1.31.74-.66,1.07-1.03.43-.96.77-1.31.85-.57,1.2-.91.76-.66,1.12-.97c.39-.33.82-.58,1.2-.86.42-.31.97-.33,1.37-.55.47-.26.64-.52,1.07-.64.54.32.7.1,1.15.55s.38.51.83.96.12.93.68,1.22c.54-.17,1.11-.84,1.54-.87.56-.04.97.58,1.38.75.45.18.77.4,1.12.78.31.33.53.73.81,1.17.25.39.55.77.81,1.22.23.4.62.74.89,1.17.25.4.33.95.64,1.36.28.38.55.83.89,1.21.32.35,1,.37,1.38.71.35.31.59.81,1.01,1.1.39.27.71.72,1.16.97.53.29.98.41,1.29.75.36.4.91.66,1.09,1.16.16.45.22.99.33,1.55.09.46.17.97.28,1.53.09.47.04,1,.18,1.54.11.47.09,1.02.26,1.55.14.46.36.94.56,1.46.17.46.19,1.02.42,1.53.16.37.62.86.36,1.24-.22.33-.79.53-1.16.71s-.96.37-1.34.23c-.46-.17-.93-.3-1.34-.49-.44-.2-.61-.93-1.01-1.14-.43-.23-.9-.33-1.29-.56-.42-.25-.93-.32-1.31-.56-.42-.27-.84-.49-1.2-.73-.43-.28-.6-.92-.97-1.13-.47-.25-1.01-.4-1.42-.47-.47-.08-.79.53-1.23.78-.34.2-1.01.09-1.35.54h-.02ZM512.26,79.71c.22-.19.53-.41.94-.55.48-.17.94-.4.89-.72-.06-.4-.08-.84-.12-1.23-.05-.52-.19-.93-.51-1.05-.25-.1-.73,0-1.23,0s-1.1-.14-1.3.02c-.55.43-.32.73-.87,1.16-.24.19-1.39-.81-1.71-.78-.35.24-.34,1.11-.58,1.7-.19.47-.27.97-.35,1.5-.08.57-.21,1.06-.11,1.53.08.39.58.48,1.25.58.6.08,1.24.23,1.58.07.37-.17.93-.45,1.28-.95.28-.4.5-.86.83-1.27v-.02Z"/>
        <path d="M1853.76,103.02c-.44-.28-.64-1.01-1.12-1.25s-1.21.09-1.7-.14-.79-.82-1.27-1.04-1-.38-1.46-.64-.95-.49-1.38-.81c-.38-.28-.48-.92-.84-1.21s-.98-.28-1.34-.58-.61-.74-.96-1.05-.69-.64-1.04-.95-.62-.72-.97-1.03-.81-.62-1.21-.84c-.43-.24-1-.53-1.47-.51-.43.02-1,.29-1.45.63-.58.45-.24.89-.82,1.33s-.9.03-1.48.48-.37.72-.95,1.17-.8.17-1.38.62-.31.8-.89,1.25-.8.17-1.38.62-.56.48-1.14.93c-.35.27-.73.55-1.17.79-.4.22-.9.24-1.35.43-.43.18-.72.78-1.19.92s-.98,0-1.46.1-.91.37-1.39.42-.97-.3-1.44-.3-.94.03-1.41-.03-.99.05-1.44-.08-.84-.47-1.26-.69-.84-.43-1.2-.75c-.38-.34-.73-.74-1.05-1.19-.3-.42-.49-.92-.73-1.41s-.21-1.02-.37-1.53-.45-.96-.53-1.48-.35-1.06-.32-1.58c.03-.48.28-.95.52-1.42.21-.42.55-.79.88-1.2.3-.37.58-.79.95-1.16.34-.35.73-.66,1.1-1.01s.78-.63,1.14-.98.64-.78.98-1.14.86-.61,1.16-.99c.32-.41.44-.89.67-1.31.67-.26.69-.15,1.4-.25s.71-.14,1.42-.25.72-.03,1.44-.14.74.06,1.45-.05.67-.41,1.38-.52c.63-.09,1.07-.45,1.55-.59.56-.17,1.15.04,1.7,0,.47-.02.91.18,1.54.43.62.24.69.06,1.31.3s.73-.05,1.35.2.6.29,1.23.53.63.22,1.25.46c.29.11.98.63,1.23.78.3.19.97-.25,1.35-.21.49.06,1.08-.26,1.57-.12s.9.51,1.36.72.97.32,1.41.57.92.46,1.34.74.67.81,1.06,1.12.99.39,1.37.71.33,1.16.68,1.49c.56.52.93.12,1.48.64s.47.61,1.02,1.12.52.56,1.08,1.07.39.7.95,1.21.85.21,1.41.73.31.78.87,1.31c.34.32.91.37,1.31.65s.84.38,1.27.61.59.94,1.03,1.13.96.19,1.41.34.9.33,1.36.46.95.15,1.41.25.95.1,1.41.18.96.03,1.42.08c.38.04.89.5,1.5.55.49.04,1.09-.48,1.61-.39s1.07.32,1.53.51c.51.2.7.83,1.03,1.21s.96.67.99,1.26c.03.46-.6.93-1,1.35-.38.39-.8.77-1.3.81-.74.06-.72.28-1.46.35s-.75-.06-1.49,0-.78-.38-1.52-.32-.72.3-1.47.36c-.49.04-.97.47-1.44.47s-.98-.17-1.46-.22-1.01.02-1.47-.08-.92-.37-1.38-.51-.83-.56-1.27-.74-.84-.45-1.28-.66-1.04-.09-1.46-.32-.87-.44-1.28-.69l-.04-.04ZM1828.43,91.7c.1-.41.33-1.07-.05-1.55s-1.11-.35-1.5-.37c-.45-.02-.99-.31-1.49-.11-.47.19-.88.55-1.23.88-.29.27-.44.75-.58,1.26s-.6,1.12-.49,1.48c.08.28.73.48,1.06.77s.66.65.96.68c.6.06,1.21-.03,1.7-.27s1.06-.58,1.4-1.05c.31-.44.08-1.16.22-1.73h0Z"/>
        <path d="M304.55,80.35c.5-.45.8-.12,1.29-.57s.47-.49.97-.94.53-.42,1.03-.87.17-.81.67-1.27.71-.2,1.3-.53c.44.11.56.44.89.74s.69.52.89.91.55.78.62,1.19c.06.36.1.89-.05,1.34-.13.39-.65.64-.88,1.01-.25.38-.25.99-.56,1.24-.55.45-.72.23-1.27.68s-.54.46-1.09.91-.46.56-1.01,1.01-.68.3-1.23.75-.54.47-1.09.92c-.4.33-.93.48-1.4.77s-.94.51-1.4.79-.62,1.05-1.05,1.35c-.45.32-.81.64-1.17,1.01s-.83.64-1.18.99-.75.71-1.11,1.05-.84.6-1.22.93-.72.72-1.12,1.04-.72.74-1.14,1.04-1.04.27-1.47.55c-.41.26-.81.42-1.18.61-.42.22-.77.36-1.2.45s-.76.05-1.24-.02c-.39-.06-.9.19-1.37,0s-.96-.35-1.44-.54-.84-.65-1.32-.84-1.11,0-1.58-.21-.77-.77-1.23-1-1.08-.16-1.52-.42-.95-.46-1.37-.75-.59-.93-.99-1.26-.64-.78-1-1.16-.97-.54-1.25-.97-.43-.95-.66-1.42-.13-1.06-.33-1.54-.8-.78-1-1.25-.03-1.13-.25-1.58-.52-.81-.7-1.25-.32-.9-.47-1.35-.74-.78-.87-1.24.37-1.07.28-1.54-.71-.86-.76-1.33-.04-.98-.05-1.45.27-.96.3-1.43.04-.95.11-1.43.4-.88.52-1.34-.14-1.03.02-1.49.58-.79.78-1.23-.01-1.07.22-1.5c.33-.6.63-.44.96-1.04s.56-.48.89-1.08-.15-.87.17-1.47.35-.59.68-1.2c.21-.39.81-.54,1.08-.9s.5-.72.81-1.05.53-.73.85-1.04.43-.85.74-1.15,1-.26,1.31-.57c.41-.42.73-.82,1.12-1.09.46-.32.93-.45,1.42-.59s.96-.51,1.52-.5c.48,0,.95.53,1.52.62.47.08.96-.11,1.4,0s.95.09,1.38.24.71.65,1.13.86.86.28,1.27.54c.34.22.85.41,1.35.75.39.27.78.62,1.22.95.4.29.81.61,1.23.94s.71.75,1.09,1.09.73.72,1.08,1.09c.37.38.59.84.89,1.24.33.43.99.61,1.21,1.04.25.5.02,1.07.05,1.54.03.51.27,1.04-.03,1.51-.21.32-.89.5-1.49.74s-1.09.34-1.5.17c-.5-.2-1.12-.08-1.54-.32-.47-.26-.6-.98-.99-1.27-.43-.32-.87-.54-1.23-.87-.39-.36-.83-.64-1.16-1-.37-.39-.99-.51-1.32-.85-.38-.4-.5-1.01-.87-1.28-.43-.32-.89-.79-1.39-.85-.35-.04-1.08.14-1.6.38s-.58,1.02-.81,1.34c-.31.43-1.11.47-1.38.86-.31.44-.15,1.15-.41,1.54-.3.45-.74.75-.98,1.14-.29.46-.6.85-.82,1.26-.25.47-.59.88-.76,1.31-.19.48.14,1.09.02,1.57s-.4.89-.47,1.42c-.06.46-.27.93-.31,1.47-.03.46.14.97.11,1.5-.02.46.14.97.11,1.5-.02.47-.07.97-.1,1.5s.01,1.01.04,1.51.12.99.22,1.49.12,1,.28,1.49.38.93.61,1.39.46.88.76,1.3.43.95.79,1.33.84.39,1.19.58c.42.22.73.57,1.17.59s.87-.04,1.33-.13c.42-.08.92.1,1.38-.02s.75-.79,1.22-.94c.44-.14.87-.34,1.33-.51s1.11.27,1.56.09.91-.33,1.35-.52.84-.48,1.28-.69.9-.35,1.33-.57.6-.93,1.02-1.15.85-.43,1.27-.67.81-.51,1.21-.76,1.07-.12,1.46-.38.88-.45,1.26-.73.44-1.02.81-1.31c.38-.31.69-.66,1.03-.98l-.02.04Z"/>
        <path d="M1763.26,76.95c-.1-.81-.54-.76-.64-1.57s.09-.84,0-1.65-.23-.8-.32-1.62-.04-.83.06-1.64c.43-.35.76-.67,1.2-.78.49-.12,1,.03,1.47.15s1.08.04,1.51.32c.4.26.61.83.97,1.19s.53.83.83,1.22.46.87.71,1.27c.27.45.7.76.88,1.18.25.54.41,1,.48,1.36.14.71.47.65.61,1.36s-.27.79-.13,1.51.35.67.49,1.39.32.68.46,1.39.2.7.34,1.42-.27.8-.13,1.51.45.66.59,1.37-.2.78-.06,1.5c.1.49-.02.97,0,1.48s.66.96.71,1.45.14.91.33,1.37c.18.44.15.97.54,1.35.31.3.76.25,1.26.27.44,0,.93.17,1.35,0s.58-.67.83-1.03c.3-.44.71-.74.95-1.12.29-.45.79-.71,1.01-1.09.28-.46.52-.88.74-1.26.27-.47.49-.89.71-1.27.25-.44.31-.94.58-1.34.25-.37.47-.8.81-1.21.28-.33.63-.66,1-1.06.3-.32.48-.83.86-1.2.32-.31.86-.44,1.25-.8.33-.31.94-.36,1.33-.71.57-.51.48-.6,1.05-1.11s.35-.76.91-1.27.65-.42,1.22-.93.44-.66,1-1.17c.36-.32.62-.74.96-1.03.36-.31.97-.29,1.33-.57s.71-.58,1.1-.84.57-.83.98-1.07c.39-.22,1.02-.03,1.45-.24.34-.17.71-.52,1.22-.77.39-.2.94-.18,1.41-.41.41-.2.66-.8,1.11-1.02.42-.2.8-.54,1.25-.74s.91-.33,1.35-.52.97-.17,1.42-.36,1.01-.07,1.46-.24.86-.45,1.31-.61.91-.33,1.36-.46c.48-.15.85-.66,1.3-.77.5-.12,1.01-.09,1.46-.15.52-.07,1.02.05,1.45.08.55.04.96.24,1.31.47.48.22.97.67.94,1.3-.02.52-.68.94-.94,1.42-.29.54-.51.82-.98.96-.51.14-.88.67-1.33.79-.51.14-1.07-.05-1.53.07-.51.13-.86.77-1.32.88-.51.13-1.12-.23-1.57-.11-.51.14-.97.34-1.42.48-.5.15-.83.67-1.29.84s-1.07,0-1.52.22-.88.45-1.32.73c-.4.25-.92.38-1.35.7-.37.28-.52.9-.92,1.24-.36.3-.71.65-1.1,1-.35.31-.89.46-1.27.82-.34.32-.67.71-1.05,1.07s-.4,1.04-.74,1.43-.95.56-1.28.96-.67.81-1.02,1.19c-.44.49-.21.69-.65,1.18s-.64.31-1.07.79-.7.25-1.14.74.04.92-.4,1.41c-.34.38-.92.53-1.23.89-.33.39-.77.68-1.06,1.06-.32.41-.5.9-.77,1.28-.3.42-.68.77-.94,1.16-.28.44-.51.89-.75,1.3-.26.45-.1,1.09-.31,1.51-.23.47-.65.81-.83,1.24-.2.48-.74.82-.89,1.26-.17.5.11,1.11,0,1.56-.13.51-.06,1.03-.16,1.48-.12.52-.55.92-.67,1.37-.13.51-.2.99-.39,1.43-.19.46-.32.98-.65,1.36-.29.35-.61.83-1.06,1.13-.37.24-1.09-.07-1.6.15-.41.17-.82.43-1.34.59-.48.14-.92.65-1.43.68s-1.07-.02-1.58-.1-1.11-.14-1.57-.36-.71-.84-1.08-1.21-.8-.68-1.02-1.17c-.2-.44-.39-.88-.59-1.32s.02-1.06-.17-1.5-.93-.64-1.12-1.09-.26-.94-.45-1.38-.54-.82-.73-1.26-.06-1.01-.25-1.46-.66-.77-.83-1.22-.32-.91-.5-1.36-.33-.91-.5-1.36-.17-.97-.34-1.43-.07-.98-.19-1.45-.46-.88-.55-1.36.23-1,.17-1.49-.31-.94-.36-1.42.07-.98.02-1.46-.11-.98-.18-1.45q-.1-.71-.2-1.41c-.1-.7-.42-.66-.52-1.37s-.18-.71-.21-1.43.21-.74.12-1.45v-.03Z"/>
        <path d="M1062.18,92.74c-.32-.3-.47-.84-.81-1.21s-.78-.6-1.15-.87c-.4-.29-.81-.45-1.29-.48-.41-.03-.95-.15-1.45.14-.43.25-.81.56-1.18.82-.4.29-.62.78-.96,1.08-.37.33-.75.6-1.07.94-.33.36-.6.74-.88,1.11s-.86.56-1.12.95-.14,1.04-.4,1.44-.4.87-.66,1.27-.78.61-1.06,1.01-.3.95-.61,1.33c-.29.36-.78.57-1.12.92-.32.33-.76.49-1.13.82-.47.09-.88.34-1.37.38s-.97.16-1.46.15-.97-.15-1.45-.21-1.03.11-1.5,0-.83-.64-1.28-.82-1.06-.1-1.47-.34-.81-.61-1.18-.92-.57-.83-.87-1.21-.76-.68-.99-1.12-.12-1.05-.29-1.52-.41-.91-.54-1.39-.28-.96-.37-1.45-.1-1-.15-1.49-.31-.99-.31-1.49.49-.99.53-1.48-.05-1,.02-1.49.13-.99.23-1.48-.03-1.04.1-1.52.7-.83.86-1.29-.25-1.09-.09-1.53.68-.76.85-1.19,0-1.03.19-1.46.89-.61,1.12-1.02.11-1.05.39-1.43.93-.44,1.26-.79.33-1.04.71-1.33c.36-.27.9-.57,1.43-.78.47-.19,1.05-.18,1.54-.36.52-.2,1.2-.19,1.6-.42.5-.7.44-.76.86-1.51s-.16-1.23.48-1.81c.41.37.89,1.03,1.24,1.35.41.38.8.7,1.14,1.02.41.39,1,.52,1.32.84.43.42.39,1.17.7,1.48.46.47,1.03.6,1.29.88.55.6.59,1.12.93,1.33.28.18.75.23,1.49.54.37.16.89.19,1.47.45.4.18.86.39,1.39.64.42.2.96.23,1.47.48.42.21.66.88,1.16,1.13.43.22.93.24,1.31.49.4.27.68.64,1.03.94s.8.51,1.11.86.85.52,1.14.89.35.9.62,1.3.52.77.77,1.18.69.72.95,1.13.39.91.64,1.32.26.98.52,1.4.49.84.74,1.26.55.81.8,1.22.5.84.74,1.26.85.63,1.09,1.06-.04,1,.2,1.43c-.15.42.08.99-.21,1.38-.34.45-1.02.39-1.36.52-.44.16-.93.45-1.5.33s-.9-.6-1.23-.92c-.58-.55-.99-.12-1.57-.66s-.19-.96-.77-1.51-.77-.35-1.38-.87-.62-.51-1.2-1.06v-.03ZM1048.99,88.39c.23-.47.62-.88.73-1.37s0-1.05-.02-1.55-.15-1-.33-1.48-.22-1.07-.56-1.47c-.31-.38-.77-.72-1.23-1.01-.36-.22-.97-.17-1.49-.24s-1.04-.14-1.44,0c-.34.13-.59.54-.81,1.02-.2.43-.68.85-.72,1.25-.05.52.34,1.07.29,1.56s0,1.03-.07,1.53-.46.95-.54,1.46.14,1.05.05,1.56-.41.94-.51,1.46c-.09.45-.17,1.05.05,1.53s.74.83,1.13,1.02c.48.24.88.17,1.31.07s.84-.23,1.22-.56c.34-.29.43-.8.72-1.2.28-.38.84-.56,1.08-.97s.16-1.01.36-1.41c.24-.49.61-.85.78-1.19v-.02Z"/>
        <path d="M1542.97,117.42c-.48-.12-1,.1-1.47-.16-.43-.24-.74-.74-1.15-1.08-.38-.31-.56-.85-.93-1.23-.34-.36-.98-.48-1.31-.88s-.35-1.01-.64-1.43-.58-.83-.85-1.26-.6-.83-.84-1.28-.84-.74-1.06-1.19c-.23-.47-.27-1.03-.46-1.49-.21-.5-.52-.94-.68-1.39-.19-.53-.18-1.09-.29-1.52-.13-.49-.36-.95-.48-1.43s.2-1.09.08-1.57-.58-.89-.71-1.37-.23-.97-.39-1.45-.57-.84-.76-1.31.05-1.06-.18-1.52c-.15-.75-.25-.72-.33-1.48s-.23-.74-.32-1.5.38-.81.29-1.57-.51-.71-.6-1.47-.07-.76-.16-1.52.1-.78.01-1.54-.53-.71-.62-1.47.49-.83.4-1.59-.54-.72-.58-1.49.07-.77.09-1.53.4-.75.42-1.51-.39-.77-.37-1.53-.13-.77-.12-1.53.23-.76.25-1.52-.16-.77-.14-1.53-.07-.77-.05-1.53.24-.76.26-1.52.44-.75.46-1.52.02-.76.03-1.53-.58-.79-.53-1.55.48-.7.55-1.44-.01-.74.06-1.48.15-.73.22-1.47-.01-.75.06-1.48-.34-.78-.27-1.51c.05-.48.38-.91.41-1.37s-.08-.94-.06-1.4-.15-.94-.13-1.41.22-.92.26-1.39.11-.93.18-1.39.59-.83.69-1.29c.09-.44-.52-.99-.51-1.5,0-.47.56-.96.55-1.44s-.15-.97-.11-1.43c.04-.51.06-.98.23-1.4.22-.52.33-1.05.53-1.54.21-.51.73-.88.93-1.37s.41-1.01.58-1.52.03-1.11.17-1.65c.11-.4.53-.78.83-1.18.33-.46.54-.74.95-.74.39.26,1.08.2,1.48.58s.43,1.04.7,1.46c.3.47.53.92.57,1.39.03.5-.23.99-.21,1.46.02.5.26.97.28,1.43.01.5.39.97.4,1.44,0,.5-.09.98-.11,1.44-.01.5-.39.96-.41,1.43-.03.5.31,1,.27,1.46-.04.49-.34.95-.39,1.41s-.29.94-.34,1.41.19.99.13,1.46-.34.92-.4,1.4.12.97.07,1.45-.19.93-.23,1.42-.15.94-.18,1.43c-.03.46-.07.94-.08,1.44-.01.46.36.94.36,1.44,0,.46-.46.95-.45,1.45,0,.46-.09.96-.07,1.45s.64.96.66,1.45-.42,1-.4,1.49.58.97.59,1.46-.37.99-.36,1.49-.25.99-.24,1.48.46.98.46,1.47.13.98.13,1.48-.18.98-.19,1.47-.09.98-.1,1.47-.08.98-.1,1.47.05.99.02,1.48.1.99.07,1.48c-.04.74.04.75,0,1.49s-.29.73-.33,1.47-.12.74-.17,1.49-.09.74-.13,1.49.42.77.38,1.52c-.03.47-.43.91-.45,1.38s-.3.93-.31,1.4.3.94.32,1.41-.23.96-.18,1.43.61.85.7,1.32c.1.51.33.95.42,1.4.1.51.2.98.3,1.43.11.51.21.98.32,1.42.12.52-.07,1.06.04,1.49.14.52.16,1.01.29,1.44.16.51.47.91.64,1.33.19.48.07,1.06.28,1.48s.51.82.75,1.26c.22.4.58.74.84,1.2.22.39.41.83.66,1.29.21.39.62.73.86,1.2.21.4.55.78.78,1.25.2.41.45.84.67,1.31.19.4.26,1,.22,1.5-.04.43-.18.94-.35,1.41-.15.42-.63.59-.85,1.02l-.02.02Z"/>
        <path d="M1499.05,102.45c-.29-.43-.42-.98-.77-1.38s-.8-.68-1.18-1.04-.68-.83-1.1-1.14-1.09-.27-1.52-.52c-.47-.28-.82-.69-1.28-.89-.51-.21-.93-.73-1.41-.82-.56-.11-1.1.36-1.57.45-.55.1-.84.3-1.19.62s-.59.64-.88,1.11c-.23.38-.87.58-1.14,1.05-.23.39-.54.75-.84,1.19-.26.38-.2,1.03-.54,1.44-.3.35-.94.42-1.32.79-.33.33-.59.75-1,1.09-.39.31-.59,1.08-1.08,1.51s-1.19.42-1.71.55c-.49.12-.94.39-1.47.42s-1-.13-1.52-.18-1.04.06-1.54-.06-1.09-.04-1.56-.24-.94-.52-1.37-.8-.84-.66-1.2-1.03-.72-.79-.98-1.24-.4-.92-.6-1.33c-.23-.46-.4-.91-.58-1.33-.2-.47-.43-.91-.56-1.35-.15-.49-.46-.95-.52-1.4-.07-.49.42-1,.45-1.47s.21-.88.34-1.36c.11-.44-.34-1.1-.15-1.57.17-.42.68-.74.91-1.19.2-.41.73-.67.98-1.11.22-.4-.06-1.12.2-1.56.34-.58.79-.31,1.14-.89s.42-.54.76-1.12.25-.63.6-1.22-.09-.84.25-1.42c.26-.44.91-.62,1.19-1.04s.59-.8.91-1.2.44-.95.78-1.31.87-.54,1.25-.87.48-1.05.9-1.33,1.11-.1,1.57-.33.93-.83,1.42-1c.66.26.58.53,1.16.94s.34.75.93,1.16.89-.03,1.48.37.55.46,1.13.87.62.36,1.21.77.26.87.85,1.28c.42.29,1.09.22,1.52.51s.95.43,1.37.72.65.87,1.06,1.18,1.01.39,1.4.73.77.71,1.13,1.09.55.9.86,1.32c.44.6.57.52,1.01,1.12s.13.83.57,1.44.3.71.74,1.31.84.32,1.28.92.36.67.8,1.27.41.63.85,1.24.38.65.82,1.26.33.69.77,1.3.36.67.8,1.28.55.53,1,1.14.82.33,1.27.94c.37.5.26,1.34.66,1.79.37.42.86.77,1.32,1.26.32.34.58,1.04.19,1.69-.34.56-1.22.72-1.61.97-.31.2-.63.36-1.11.35-.41,0-.97.36-1.38.21s-.45-.91-.72-1.21c-.36-.4-.98-.57-1.33-.98s-.88-.67-1.22-1.08-.49-1-.82-1.42-.77-.78-1.07-1.22h0ZM1480.22,99.27c.5-.11,1.03-.13,1.42-.44s.64-.77.96-1.16.74-.72,1.02-1.12c.31-.45.28-1.13.58-1.46s.74-.55.97-.92c.25-.39.79-.66.93-1.07.15-.44-.24-.98-.23-1.42s-.07-.81-.22-1.24c-.13-.41-.28-.75-.57-1.13-.3-.41-.37-1.12-.82-1.42s-.97-.64-1.48-.78-1.11.25-1.63.34-1.2-.08-1.64.27c-.37.28-.62.74-.91,1.07s-.24.92-.46,1.32-.81.63-.96,1.06-.06.93-.14,1.38-.28.89-.3,1.34.18.91.21,1.36c.03.4.38.83.56,1.36.15.46.27.91.52,1.33.27.44.52.81.89,1.07.41.28.76.39,1.28.28l.02-.02Z"/>
        <path d="M1623.7,95.68c-.23-.43-.31-.97-.62-1.33s-.79-.59-1.16-.89-.89-.36-1.31-.58c-.44-.23-.77-.62-1.22-.75-.48-.14-.96.09-1.42.09-.5,0-1.05-.45-1.48-.28s-.89.53-1.21.9c-.5.59-.47.62-.98,1.2s-.51.59-1.01,1.18-.53.57-1.03,1.16c-.31.37-.41.95-.77,1.31s-.97.4-1.35.73-.54.91-.94,1.2-.78.66-1.19.91-.91.46-1.35.67c-.41.2-1.03-.14-1.49-.02s-.86.21-1.33.27-.88.75-1.35.77-.95-.33-1.41-.35-.92-.36-1.38-.4-.94-.02-1.4-.07c-.48-.05-.77-.27-1.21-.58-.38-.27-.87-.41-1.21-.82-.31-.37-.45-.85-.72-1.3-.25-.43-.5-.84-.7-1.31s-.46-.89-.61-1.37-.15-1-.24-1.48c-.1-.53-.55-.99-.56-1.46-.01-.57.16-1.11.3-1.51.17-.48.55-.89.76-1.36s.52-.88.76-1.34.14-1.1.41-1.54.63-.83.92-1.25.87-.63,1.19-1.04.2-1.18.54-1.56.83-.66,1.19-1.02,1.02-.43,1.34-.78c.36-.38.63-.81.94-1.15.37-.41.55-.92.86-1.21.5-.48.92-.96,1.25-.91.47.06,1.12.87,1.62,1.36.5-.09.96-.4,1.47-.44s1.03.55,1.54.57,1.03-.31,1.54-.23,1.03.09,1.52.23.98.32,1.46.51.95.41,1.39.66c.6.34.97.32,1.34.38.45.06.81.14,1.44.17.38.02.9-.08,1.51.06.4.09.75.68,1.3.85.42.13.82.41,1.34.6.42.16,1.1-.25,1.6-.04.42.17.63.96,1.12,1.17.51.23.91.44,1.31.74.43.33,1.21.26,1.55.66s.3,1.1.59,1.55.7.8.98,1.25.5.93.81,1.37c.29.41.49.9.8,1.26.33.38.7.72,1.05,1.05.36.35.9.5,1.24.82.37.35.8.63,1.12.97.35.38.53.87.75,1.28s.18.9.21,1.41c.03.44-.03.84-.19,1.38-.12.43-.34.95-.83,1.34-.46.36-.98.67-1.47.76s-.93.02-1.38,0c-.48,0-.97.19-1.41.09s-1-.12-1.41-.33-.6-.82-.97-1.1-.61-.65-.93-.99-.48-.75-.75-1.13-.86-.53-1.08-.94v-.02ZM1607.57,92.71c.41-.34.94-.58,1.21-1,.29-.44.35-1.01.5-1.48.16-.51,0-1.03.02-1.52.02-.55.18-1.06.03-1.51-.18-.55-.63-.72-1.01-.98-.25-.17-.54-.7-1.02-.67s-.98.21-1.24.39c-.62.43-.6.47-1.22.9s-.62.43-1.24.87c-.38.27-.77.53-1.12.83s-.46.85-.76,1.19-.89.48-1.14.87-.14.96-.3,1.39-.18.84-.25,1.31c-.07.44-.2.72-.18,1.2.46.11.73.65,1.2.69s.99.04,1.46,0,.84-.75,1.3-.86.98.08,1.42-.09,1.02-.12,1.43-.36.55-.86.92-1.17h-.01Z"/>
        <path d="M1154.93,107.18c-.39.14-.89.63-1.47.58-.49-.05-1.01-.37-1.49-.55s-.93-.51-1.27-.86c-.36-.37-.3-.8-.28-1.35.02-.46-.5-1.08-.35-1.64.13-.48.37-1,.57-1.5s.87-.75,1.12-1.21.22-1.13.52-1.53c.34-.46.64-1,1.01-1.29s.98-.19,1.41-.34.86-.29,1.29-.43.83-.35,1.21-.6c.36-.23.41-.67.66-1.11.2-.33.35-.72.42-1.26s.67-1.09.56-1.49c-.17-.6-.76-.93-1.22-1.14-.4-.18-.96-.12-1.54-.21-.46-.07-1.02.07-1.57-.06-.46-.11-.82-.7-1.33-.92-.44-.18-1.02-.16-1.49-.46-.61-.4-.69-.28-1.3-.68s-.58-.44-1.19-.83-.37-.76-.98-1.16-.65-.34-1.26-.74-.89.03-1.5-.37-.46-.63-1.07-1.03-.49-.58-1.11-.98-.65-.34-1.26-.74c-.41-.26-.86-.5-1.27-.83s-.58-.83-.94-1.2-.86-.57-1.13-.99-.36-.91-.52-1.39-.67-.9-.67-1.42c0-.4.25-.97.42-1.55.15-.49.12-1.11.33-1.58.25-.55.95-.79,1.22-1.09.35-.41.35-1.08.67-1.44.36-.41,1.07-.45,1.39-.8.37-.41.82-.67,1.15-1,.39-.4.33-1.18.67-1.5.42-.39,1.16-.29,1.51-.57.46-.36.52-1.15.91-1.37.47-.26.96-.48,1.43-.65.44-.16,1.11.27,1.64.08.42-.15.79-.59,1.32-.81.42-.17.87-.4,1.38-.65.42-.2,1.01-.17,1.5-.44.42-.23.72-.78,1.2-.98s1-.54,1.49-.54.76.63,1.2.99c.3.24.43.48.55.94.11.4.4.78.38,1.21-.02.47-.21.87-.38,1.2-.22.43-.35.94-.74,1.26-.35.29-.79.55-1.24.78-.41.21-.86.42-1.32.61-.44.18-.95.19-1.41.38s-.93.29-1.37.49-.96.3-1.37.54-.87.54-1.23.85-.36.98-.64,1.38c-.25.36-.88.6-1.01,1.06-.11.42.13.96.11,1.43s.04.9.11,1.36.06.94.2,1.37.29.92.52,1.3c.24.4.48.9.81,1.2.36.33,1.01.31,1.4.59s.65.78,1.07,1.02.92.32,1.36.53.79.58,1.24.77.87.4,1.32.58,1,.06,1.46.26.95.21,1.4.41c.43.19.88.38,1.32.6s.89.38,1.33.62c.41.22.81.52,1.24.78s.89.5,1.45.73c.51.2.94.64,1.42.88.53.27.97.56,1.3.95s.26.83.38,1.29.25.82.2,1.31c-.04.45-.1.88-.24,1.36-.14.44-.17.92-.38,1.37-.19.42-.29.91-.53,1.33s-.31.93-.57,1.34-.84.6-1.11.98-.69.69-.97,1.06c-.3.4-.65.74-.92,1.09-.32.42-.43.94-.67,1.28-.28.39-.36.93-.64,1.29s-.63.73-.95,1.07-.81.52-1.17.83-.52.88-.93,1.14c-.38.25-.99.14-1.44.35-.41.19-.87.26-1.34.42v.04Z"/>
        <path d="M1226,81.98c.24.4.36.91.69,1.32.3.38.67.72,1.01,1.1s.61.79.96,1.15.94.51,1.27.87c.35.38.47.96.77,1.32.34.41.54.89.79,1.27.31.48.64.88.72,1.3.1.52,0,1.04-.43,1.41-.32.28-.92.15-1.42.32-.44.15-.83.49-1.33.53s-.98.03-1.43-.07c-.51-.1-.89-.35-1.23-.64-.54-.45-.62-.35-1.15-.8s-.46-.54-1-.99-.52-.47-1.05-.91-.78-.16-1.32-.6-.4-.61-.94-1.06-.32-.71-.86-1.16-.94.03-1.48-.42c-.51-.43-.72-1.2-1.12-1.26-.52-.07-1.16.28-1.6.67-.33.3-.65.76-1,1.22-.29.38-.53.84-.86,1.28-.3.39-.37,1.01-.73,1.41-.33.37-1.05.36-1.45.71-.37.32-.75.61-1.2.9-.42.26-.82.49-1.32.71-.45.2-.83.57-1.36.71-.47.13-.94.44-1.48.51-.49.07-.99-.09-1.46-.09s-.92-.34-1.39-.41-1.08.48-1.54.36-.79-.7-1.24-.88-.82-.47-1.25-.69-.8-.49-1.2-.75-.88-.4-1.26-.69-.85-.47-1.22-.79-.58-.79-.93-1.12c-.41-.39-.69-.77-.97-1.14-.32-.43-.86-.71-1.03-1.17s.1-1.03.02-1.57c-.07-.46,0-.94-.01-1.5-.02-.42-.03-.95-.06-1.54-.02-.48-.62-.98-.63-1.53-.01-.5.38-1.02.39-1.55s-.37-1.04-.34-1.56.13-1.04.18-1.55.48-.99.58-1.48c.11-.53.19-1.02.35-1.48.19-.53.3-1.02.58-1.4.32-.44.67-.82,1.14-1.01.53.17,1.11.12,1.5.31.51.25.69.87,1,1.18.37.37.56.74.73,1.19.16.43.17.88.23,1.41.05.45.12.93.16,1.45.04.46.07.96.14,1.48.06.46.66.84.77,1.36.1.45-.12,1,.03,1.5.23.77.28.76.52,1.53s.29.76.52,1.53.1.82.34,1.59.34.69.77,1.37c.47-.06.73.24,1.23.18s.98-.16,1.47-.24.99-.21,1.46-.34,1.03-.17,1.48-.37.86-.6,1.25-.89.52-.94.9-1.27.98-.41,1.34-.77.65-.77.98-1.15.51-.88.82-1.27.67-.75.95-1.17.56-.83.81-1.27.25-.99.46-1.44c.23-.51.64-.9.84-1.37.22-.5.47-.96.71-1.43s.4-.98.7-1.44c.27-.42.72-.47,1.08-.91.33.37.52.51.82.88s.67.71.94,1.1.58.78.84,1.18.2,1,.44,1.42.61.76.84,1.18.85.64,1.07,1.07.38.89.6,1.32.41.87.64,1.3.33.91.57,1.34.63.74.89,1.16v.04Z"/>
        <path d="M1745.2,106.64c-.36-.25-.67-.72-1.03-.99s-.77-.46-1.11-.74-.45-.85-.78-1.13-.93-.29-1.25-.59-.82-.44-1.13-.74c-.27-.25-.42-1.03-.81-1.52-.41-.52-.93-1.27-1.39-1.17-.52.11-1.01.33-1.38.53-.44.23-.64.78-.96,1.11s-.59.68-.88,1.08c-.26.35-.75.55-1.06.94-.27.34-.19,1.02-.53,1.38-.3.31-.96.29-1.34.62-.33.28-.37.99-.78,1.28-.36.25-1,.12-1.43.38-.56.33-.41.58-.97.92s-.77,0-1.33.32-.32,1.07-.97,1.11-.76-.18-1.39-.43-.44-.72-1.07-.98-.71-.06-1.34-.31c-.41-.17-.86-.36-1.32-.56-.43-.19-1-.13-1.43-.35s-.66-.81-1.07-1.06-.98-.31-1.34-.61c-.39-.32-.79-.66-1.07-1.02-.47-.62-.21-.82-.69-1.44s-.82-.36-1.3-.99-.1-.91-.57-1.54-.77-.41-1.24-1.03c-.23-.3-.27-.91-.3-1.46-.03-.45,0-.96,0-1.42.02-.54.46-1.1.41-1.45-.08-.5-.23-.97-.29-1.46s-.03-.99-.06-1.48-.63-.99-.61-1.49.13-1.01.19-1.51.51-.92.62-1.41c.09-.39.02-.94.17-1.51.12-.44-.02-1.02.14-1.53.14-.46.58-.86.74-1.36.16-.47.04-1.06.22-1.54s.48-.91.68-1.37.62-.84.85-1.28c.25-.46.68-.78.95-1.18.3-.44.54-.87.87-1.21.39-.39.72-.77,1.15-.96.47-.21.94-.14,1.45-.05s.6.46.83.98c.19.44.4.86.43,1.38.03.57-.16,1.02-.27,1.43-.12.42.38,1.05.23,1.47s-.43.8-.59,1.21-.56.75-.7,1.17-.3.86-.4,1.29-.06.91-.09,1.35c-.03.52.03,1.03,0,1.55s-.36,1.02-.38,1.53.44,1.04.43,1.55-.6,1.03-.6,1.54.19,1.03.2,1.55.19,1.02.21,1.54-.12,1.04-.08,1.55.28,1.01.33,1.52c.04.46.15.94.4,1.37.23.39.45.88.8,1.23s.89.43,1.29.7.86.41,1.28.6c.48.21.82.83,1.24.9.48.08,1.03.08,1.53.07s1.01-.19,1.49-.3.85-.59,1.29-.78.83-.45,1.22-.74.88-.47,1.17-.85c.24-.32.82-.58,1.03-1.07.17-.4-.17-1.04,0-1.52.15-.42.25-.88.41-1.34.14-.43.76-.72.91-1.18s.33-.87.51-1.31,0-1.01.2-1.44.5-.81.73-1.22.63-.54.9-.92c.48-.02.84-.28,1.34-.27s1.03-.22,1.51-.15.95.41,1.41.58.88.43,1.27.75.7.75.91,1.26c.19.48,0,1.11.15,1.61.16.54.81.85,1.05,1.26.23.37.29.91.59,1.36.26.39.82.61,1.1,1.03.26.4.23,1.01.49,1.43s.49.85.72,1.27.54.84.72,1.28c.2.48.54.91.63,1.36.11.52-.19,1.02-.28,1.47-.09.48-.39.7-.77,1.06-.31.29-.52.93-1.06,1.11l.05-.02Z"/>
        <path d="M1575.2,103.53c-.76-.12-.83.37-1.59.26s-.72-.39-1.47-.51-.76-.09-1.52-.21-.71-.46-1.46-.58-.84.41-1.6.3-.68-.63-1.44-.74c-.46-.07-.98.41-1.45.37s-.9-.37-1.37-.4-.92-.27-1.38-.3-.96.31-1.43.26-.96,0-1.42-.09-.81-.65-1.25-.78-.91-.16-1.34-.36c-.46-.22-1.1-.1-1.55-.33s-.78-.74-1.23-.98-.74-.78-1.19-1.02-1.11-.11-1.55-.36-.91-.47-1.35-.72-.86-.54-1.31-.81-.93-.44-1.37-.71c-.37-.23-.5-.82-.87-1.12-.34-.28-.69-.55-1.02-.87s-.85-.44-1.14-.79-.42-.83-.68-1.2-.54-.74-.76-1.12,0-.87-.03-1.39c-.03-.45-.26-.91-.16-1.4s.14-.96.32-1.4c.19-.46.68-.71.96-1.07.32-.41.47-.93.87-1.1.47-.2.89-.6,1.38-.72s1.11.32,1.6.21.98-.32,1.46-.47.82-.62,1.26-.88c.41-.24,1.06-.25,1.44-.64.32-.33.43-.92.71-1.39.24-.4.42-.94.62-1.45.53.12,1.06.44,1.53.49.53.06,1.05.23,1.53.21s1.04-.05,1.54-.13,1-.15,1.51-.26c.47-.1.96-.22,1.47-.34.47-.11.84-.7,1.37-.81.47-.1,1.05.29,1.57.2.47-.08.95-.15,1.48-.22.49-.06.95-.26,1.41-.33.48-.08.84-.65,1.29-.77s.84-.29,1.29-.49c.41-.18.83.05,1.25-.23.56.55.43.59.79,1.29s.68.53,1.05,1.23c.21.4.11,1.05.21,1.56s.02.85-.21,1.28c-.49.07-.89,0-1.39.07s-.9.77-1.4.83-1.05-.34-1.54-.27-.93.5-1.42.57-1.07-.4-1.56-.32-.92.54-1.4.64-.92.42-1.41.53-.98.13-1.46.25-.92.35-1.4.49-1.15-.34-1.62-.17-.81.69-1.27.87c.2-.08-.29.24-1.08.75-.35.23-.87.32-1.29.61-.38.25-.81.49-1.2.76s-.51.95-.88,1.22c-.42.31-.77.62-1.08.88-.63.55-1.03.53-.6.6.45.23.79.69,1.2.9.45.23.9.41,1.3.62.45.24.76.67,1.17.89.45.24.92.38,1.33.59.44.24.83.54,1.24.75.44.23,1.02.15,1.44.35s.93.26,1.37.44.79.55,1.26.71c.44.15.94.1,1.43.24.44.12.9.18,1.4.29.44.1.91.15,1.41.24.45.08.9.2,1.41.28.45.07.9.33,1.4.4.77.1.73.44,1.5.55s.78,0,1.55.1.83-.36,1.6-.26.75.29,1.52.39.92-.23,1.64.07.53.76,1.17,1.26.69.44,1.27,1c.16.4-.07.81-.13,1.27s-.16.78-.37,1.17-.34.81-.69,1.06c-.38.26-.73.31-1.2.24v-.03Z"/>
        <path d="M1306.62,103.87c-.44.16-.9.62-1.35.52-.43-.09-.81-.53-1.23-.74s-.92-.24-1.31-.46c-.43-.24-.69-.74-1.08-.86-.66-.2-.68-.11-1.34-.31s-.69-.11-1.34-.31-.65-.24-1.3-.44-.57-.49-1.22-.7-.7-.07-1.36-.27-.63-.3-1.29-.51-.78.14-1.42-.11c-.69-.27-.75-.16-1.43-.48s-.46-.77-1.13-1.09-.68-.3-1.35-.62-.6-.48-1.27-.79-.81-.03-1.48-.35-.82,0-1.49-.32-.42-.86-1.09-1.18-.7-.27-1.37-.58-.75-.17-1.42-.48c0,0-.48-.25-1.15-.64-.34-.2-.74-.42-1.14-.66-.38-.23-.79-.41-1.16-.65-.4-.26-.86-.41-1.18-.64-.59-.42-.76-.86-.68-1.01.07-.48-.19-1.04-.04-1.48s.88-.63,1.1-1.04.02-1.1.31-1.47.58-.77.92-1.1.78-.55,1.15-.85c.63-.5.61-.52,1.24-1.03s.75-.35,1.37-.86.79-.3,1.42-.8.39-.81,1.02-1.31c.37-.3,1-.31,1.34-.64s.34-1.01.67-1.35.67-.67.99-1.02.89-.46,1.23-.79.47-.89.82-1.21.77-.58,1.15-.86.79-.56,1.21-.78.73-.61,1.11-.84c.41-.24,1.13,0,1.49-.28s.57-.77.85-1.16c.24-.35.38-.81.56-1.29.44.08,1.03-.13,1.53.02.46.14.77.75,1.2.99s.9.4,1.23.76.29.86.45,1.36c.12.37.13.66-.1,1.1-.2.37-.28.87-.58,1.19-.34.35-.79.55-1.1.74-.34.21-.56.73-1.01,1.05-.36.25-.87.35-1.28.66-.36.27-.76.53-1.15.84-.36.29-.78.53-1.15.85s-.91.41-1.26.74-.66.71-1,1.05-.36.99-.68,1.34-.69.66-.99,1.03-.9.55-1.16.93c-.28.41,0,1.13-.2,1.53-.23.45-.93.68-1.05,1.12-.13.48-.18,1.03-.16,1.48.02.48.14,1.07.36,1.51.33.33,1.04.69,1.66.98s1.3.35,1.78.46.94.47,1.43.61.95.36,1.44.52,1.12-.11,1.6.07.87.6,1.34.79.85.6,1.31.81,1,.27,1.45.5,1.08.14,1.53.39.87.54,1.32.79.89.51,1.33.77.81.62,1.29.85.86.59,1.32.82.94.43,1.37.7.66.65,1.02,1.01c.07.37.63.82.5,1.37-.11.47-.51.94-.74,1.35-.27.48-.78.63-1.19.77h.01Z"/>
        <path d="M1107.13,113.05c-.49.03-.83-.21-1.28-.33s-1.03.07-1.43-.18-.64-.7-.95-1.07-.83-.62-1.01-1.08c-.17-.43.12-.99.08-1.49s-.36-.95-.41-1.44.17-1.01.11-1.5-.52-.93-.58-1.41-.25-.95-.32-1.44.4-1.05.32-1.54-.75-.87-.83-1.36.24-1.03.16-1.52-.27-.95-.36-1.43-.25-.95-.34-1.43.25-1.05.15-1.54-.55-.94-.58-1.47.14-1.03.15-1.55.05-1.03.07-1.55.15-1.04.16-1.55c0-.6.18-1.04.57-1.52.37-.46.87-.71,1.38-1.02.46-.28.74-.37,1.24-.26.45.09,1.14-.15,1.58.19.37.29.36,1.03.69,1.46.29.38.85.62,1.09,1.08.23.43.1,1.03.27,1.52s.72.85.81,1.35-.21,1.04-.2,1.55c.01.72.05.72.07,1.44s.04.72.05,1.44-.18.73-.16,1.45.49.71.5,1.43-.24.73-.23,1.45.22.72.24,1.44-.36.73-.34,1.45.08.72.09,1.45.23.72.25,1.45-.15.73-.13,1.45c.01.56.17,1.11.26,1.64s.18,1.09.19,1.63-.15,1.01-.39,1.55c-.2.44-.46.8-.91,1.26h-.03Z"/>
        <path d="M1100.34,72.69c-.41-.22-.84-.67-1.23-.95s-.8-.52-1.15-.85-.77-.61-1.05-.99-.26-.96-.47-1.38-.35-.84-.47-1.3-.69-.85-.71-1.33c-.03-.53.37-1.08.31-1.56-.07-.53-.21-1.03-.31-1.51-.11-.53-.2-1.04-.34-1.5-.15-.52-.77-.85-.93-1.3-.18-.52.1-1.16-.06-1.6-.19-.53-.2-1.02-.3-1.48-.12-.54-.33-.95-.25-1.43s.1-.98.47-1.43c.28-.34.7-.82,1.18-1.17.44.28.76.91,1.14,1.23s1.04.4,1.39.76.47.95.78,1.36.59.82.85,1.26.62.83.83,1.29.22,1.01.4,1.49.34.95.47,1.45.08,1.01.17,1.52.13.99.19,1.5.68.96.71,1.47c.03.45.08.89.1,1.33s-.13.91-.15,1.35-.11.9-.22,1.33c-.11.41-.39.78-.62,1.19-.2.36-.41.89-.73,1.26h0Z"/>
      </g>
    </g>
  </g>
</svg>